<svg width="106" height="38" viewBox="0 0 106 38" fill="none" xmlns="http://www.w3.org/2000/svg">
<g clip-path="url(#clip0_3078_2308)">
<path d="M102.748 26.1206C104.544 26.1206 106 27.593 105.999 29.4063C105.998 31.221 104.54 32.6927 102.747 32.6902C100.95 32.6877 99.4946 31.2159 99.4971 29.4032C99.4996 27.5892 100.954 26.1206 102.748 26.1206ZM102.749 26.7882C101.319 26.7882 100.159 27.9585 100.158 29.4044C100.157 30.8497 101.317 32.0238 102.748 32.0238C104.178 32.0238 105.338 30.8535 105.34 29.4076C105.341 27.9623 104.181 26.7882 102.749 26.7882Z" fill="#006FDF"/>
<path d="M101.325 27.6112C101.335 27.6112 101.341 27.6112 101.347 27.6112C101.808 27.6112 102.27 27.6099 102.73 27.6124C102.953 27.6137 103.175 27.637 103.388 27.7099C103.527 27.7578 103.653 27.8276 103.754 27.9365C103.864 28.0547 103.92 28.1982 103.943 28.3568C103.97 28.5317 103.967 28.706 103.917 28.8771C103.851 29.1055 103.703 29.2628 103.496 29.3666C103.437 29.3956 103.376 29.4182 103.315 29.444C103.39 29.4648 103.461 29.4975 103.526 29.5441C103.651 29.6334 103.743 29.7524 103.815 29.8857C103.912 30.0682 104.003 30.2538 104.095 30.4388C104.191 30.6314 104.285 30.8245 104.379 31.0177C104.384 31.0265 104.388 31.0359 104.393 31.0479C104.382 31.0485 104.374 31.0498 104.365 31.0498C104.072 31.0498 103.78 31.0498 103.488 31.0498C103.467 31.0498 103.457 31.0435 103.448 31.0252C103.307 30.7339 103.166 30.442 103.022 30.1519C102.989 30.0858 102.948 30.0242 102.906 29.9638C102.824 29.8455 102.709 29.7731 102.568 29.7593C102.447 29.7473 102.325 29.7492 102.2 29.7454V31.0479H101.324V27.6112H101.325ZM102.202 29.1364C102.352 29.1364 102.5 29.1389 102.647 29.1351C102.7 29.1338 102.755 29.1231 102.806 29.1099C102.938 29.0766 103.029 28.9973 103.064 28.8608C103.092 28.75 103.093 28.6387 103.065 28.5285C103.034 28.4096 102.962 28.3266 102.844 28.292C102.792 28.2769 102.738 28.263 102.685 28.2611C102.527 28.2555 102.368 28.2561 102.209 28.2548C102.207 28.2548 102.204 28.2561 102.2 28.2574V29.1357L102.202 29.1364Z" fill="#006FDF"/>
<path d="M1.54317 13.3057C2.57195 11.4841 3.97625 10.0652 5.75732 9.0478C7.53776 8.031 9.53429 7.52197 11.7469 7.52197C14.3351 7.52197 16.6025 8.19271 18.5492 9.53355C20.4959 10.8744 21.856 12.7299 22.6307 15.0989H17.2888C16.7582 13.9814 16.0115 13.144 15.0487 12.5846C14.0866 12.0259 12.975 11.7459 11.7139 11.7459C10.3644 11.7459 9.16438 12.0642 8.1138 12.7016C7.0626 13.339 6.24431 14.2388 5.6583 15.4009C5.07167 16.5631 4.77898 17.9266 4.77898 19.4914C4.77898 21.0563 5.07229 22.3908 5.6583 23.5643C6.24431 24.7378 7.0626 25.6432 8.1138 26.28C9.16438 26.9167 10.3644 27.2357 11.7139 27.2357C12.975 27.2357 14.0866 26.9507 15.0487 26.3813C16.0109 25.8112 16.7576 24.9681 17.2888 23.8499H22.6307C21.856 26.2422 20.5015 28.1028 18.566 29.4323C16.6299 30.7624 14.3569 31.4269 11.7475 31.4269C9.53491 31.4269 7.53838 30.9185 5.75794 29.9017C3.97688 28.8849 2.57258 27.471 1.5438 25.6608C0.514391 23.8499 0 21.7937 0 19.4914C0 17.1891 0.514391 15.1272 1.54317 13.3057Z" fill="#006FDF"/>
<path d="M40.3159 13.3052C41.3994 13.92 42.2458 14.8254 42.8542 16.0209C43.4626 17.217 43.7665 18.6529 43.7665 20.3291V31.2251H39.1208V20.9658C39.1208 19.491 38.7559 18.3565 38.026 17.5631C37.2962 16.7696 36.3004 16.3726 35.0393 16.3726C33.7782 16.3726 32.7439 16.7696 32.0034 17.5631C31.2617 18.3565 30.8918 19.491 30.8918 20.9658V31.2251H26.2461V6.41602H30.8918V14.9651C31.489 14.1603 32.2855 13.5292 33.2807 13.0705C34.2764 12.6125 35.3818 12.3834 36.5987 12.3834C37.9924 12.3834 39.231 12.6905 40.3152 13.3052H40.3159Z" fill="#006FDF"/>
<path d="M48.1301 9.65104C47.5877 9.12628 47.3174 8.47253 47.3174 7.69042C47.3174 6.90831 47.5877 6.25457 48.1301 5.72918C48.6719 5.20442 49.3519 4.94141 50.1708 4.94141C50.9897 4.94141 51.6692 5.20442 52.2116 5.72918C52.7534 6.25457 53.0243 6.90831 53.0243 7.69042C53.0243 8.47253 52.7527 9.1269 52.2116 9.65104C51.6692 10.1764 50.9891 10.4388 50.1708 10.4388C49.3525 10.4388 48.6719 10.1764 48.1301 9.65104ZM52.4607 12.6517V31.2247H47.815V12.6517H52.4607Z" fill="#006FDF"/>
<path d="M61.3205 6.41602V31.2251H56.6748V6.41602H61.3205Z" fill="#006FDF"/>
<path d="M70.1799 6.41602V31.2251H65.5342V6.41602H70.1799Z" fill="#006FDF"/>
<path d="M82.1004 16.9007C80.8026 19.1627 80.607 21.9614 80.3243 24.5336C80.13 26.3042 79.3765 28.9456 80.2788 30.5558C80.6923 31.2938 82.2654 32.0281 82.8383 31.0113C84.2102 28.5744 84.4737 25.4025 84.9034 22.6453C85.1911 20.7999 86.1713 18.2119 84.7906 16.7044C84.1143 15.9657 82.6179 15.9984 82.101 16.9L82.1004 16.9007Z" fill="#006FDF"/>
<path d="M105.721 7.41199C103.917 5.70369 100.096 6.50719 97.2997 7.06278C97.8901 5.00338 98.6423 2.46766 97.4436 0.986507C97.0132 0.454825 95.9216 0.288714 95.4445 0.84116C93.8845 2.64951 93.4225 5.40859 92.9112 7.787C91.751 7.97261 90.5914 8.16012 89.4313 8.34259C88.5775 8.47661 87.7231 8.61126 86.8687 8.74277C86.8369 8.7478 86.7752 8.7585 86.6943 8.7736C86.906 7.49127 86.003 6.1498 84.3696 6.17056C82.1738 6.19824 80.2526 10.0836 82.0754 11.5723C83.0618 12.3777 84.58 12.0027 85.7253 11.8769C87.8937 11.639 90.0453 11.2885 92.1988 10.945C91.8482 12.5419 91.5193 14.1439 91.2198 15.7515C90.7135 18.4678 90.2894 21.2005 89.8821 23.9338C89.2905 27.9034 88.2929 32.1229 88.3097 36.131C88.319 38.3382 92.0101 37.587 92.4086 35.9045C93.9854 29.2569 94.3703 22.2317 95.5548 15.4873C95.8612 13.7431 96.1987 12.0058 96.5549 10.2717C97.3676 10.1535 98.1809 10.0396 98.9955 9.94015C101.156 9.67651 103.345 9.75768 105.402 9.00577C106.029 8.77674 106.208 7.87068 105.722 7.41073L105.721 7.41199Z" fill="#006FDF"/>
</g>
<defs>
<clipPath id="clip0_3078_2308">
<rect width="106" height="37" fill="white" transform="translate(0 0.5)"/>
</clipPath>
</defs>
</svg>
