<svg width="201" height="32" viewBox="0 0 201 32" fill="none" xmlns="http://www.w3.org/2000/svg">
<path d="M49.4925 25.869C55.2049 25.869 59.3406 21.6526 59.3406 15.8774C59.3406 10.1022 55.2049 5.88578 49.4925 5.88578C43.7801 5.88578 39.6185 10.1022 39.6185 15.8774C39.6185 21.6526 43.7025 25.869 49.4925 25.869ZM49.4925 23.3136C45.3826 23.3136 42.5394 20.2216 42.5394 15.8518C42.5394 11.5332 45.3826 8.39007 49.4925 8.39007C53.6023 8.39007 56.4456 11.5332 56.4456 15.8518C56.4456 20.2216 53.6023 23.3136 49.4925 23.3136Z" fill="#EE5A3A"/>
<path d="M60.6819 17.0273V25.4601H63.4734V17.0784C63.4734 15.443 64.6366 14.293 66.265 14.293C67.8676 14.293 69.0308 15.443 69.0308 17.0784V25.4601H71.8224V17.1295C71.8224 13.9864 69.4961 11.8654 66.2392 11.8654C62.9823 11.8654 60.6819 13.9608 60.6819 17.0273Z" fill="#EE5A3A"/>
<path d="M85.7903 14.523C84.5496 12.8365 82.6885 11.8654 80.388 11.8654C76.304 11.8654 73.2539 14.8297 73.2539 18.8672C73.2539 22.8792 76.2265 25.869 80.388 25.869C82.8177 25.869 84.7822 24.668 85.8161 23.0325L84.1618 21.3715C83.4122 22.5214 82.1715 23.3903 80.388 23.3903C77.8807 23.3903 76.0972 21.4737 76.0972 18.8417C76.0972 16.184 77.8807 14.293 80.388 14.293C82.1198 14.293 83.3088 15.0852 84.0843 16.2096L85.7903 14.523Z" fill="#EE5A3A"/>
<path d="M93.6713 25.869C97.7553 25.869 100.78 22.8792 100.78 18.8672C100.78 14.8297 97.7553 11.8654 93.6713 11.8654C89.5873 11.8654 86.5889 14.8297 86.5889 18.8672C86.5889 22.8792 89.5615 25.869 93.6713 25.869ZM93.6713 23.3903C91.1899 23.3903 89.4064 21.4737 89.4064 18.8417C89.4064 16.184 91.1899 14.293 93.6713 14.293C96.1786 14.293 97.9363 16.184 97.9363 18.8417C97.9363 21.4737 96.1786 23.3903 93.6713 23.3903Z" fill="#EE5A3A"/>
<path d="M109.905 6.29464H102.564V25.4601H105.408V18.4328H109.905C113.653 18.4328 116.315 15.8263 116.315 12.3509C116.315 8.87559 113.653 6.29464 109.905 6.29464ZM109.621 16.0052H105.408V8.74783H109.621C111.921 8.74783 113.446 10.2811 113.446 12.3765C113.446 14.4464 111.921 16.0052 109.621 16.0052Z" fill="#EE5A3A"/>
<path d="M121.965 11.9421C118.863 11.9421 117.132 13.6031 117.132 16.6696V25.4601H119.923V17.0018C119.923 15.1874 120.854 14.4208 122.379 14.4208C122.715 14.4208 123.025 14.4464 123.335 14.523V12.121C122.999 12.0187 122.508 11.9421 121.965 11.9421Z" fill="#EE5A3A"/>
<path d="M136.194 23.2625L134.565 21.6015C133.609 22.8025 132.42 23.3903 130.766 23.3903C128.491 23.3903 126.914 22.0359 126.553 19.8638H137.176C137.228 19.6083 137.254 19.1739 137.254 18.8672C137.254 14.8297 134.591 11.8654 130.688 11.8654C126.604 11.8654 123.632 14.8041 123.632 18.8672C123.632 22.8792 126.604 25.869 130.74 25.869C133.015 25.869 134.876 25.0002 136.194 23.2625ZM130.637 14.293C132.782 14.293 134.281 15.7752 134.488 17.8706H126.553C126.914 15.6985 128.439 14.293 130.637 14.293Z" fill="#EE5A3A"/>
<path d="M150.816 14.523C149.575 12.8365 147.714 11.8654 145.413 11.8654C141.329 11.8654 138.279 14.8297 138.279 18.8672C138.279 22.8792 141.252 25.869 145.413 25.869C147.843 25.869 149.808 24.668 150.842 23.0325L149.187 21.3715C148.438 22.5214 147.197 23.3903 145.413 23.3903C142.906 23.3903 141.123 21.4737 141.123 18.8417C141.123 16.184 142.906 14.293 145.413 14.293C147.145 14.293 148.334 15.0852 149.11 16.2096L150.816 14.523Z" fill="#EE5A3A"/>
<path d="M153.966 10.1533C154.897 10.1533 155.672 9.43778 155.672 8.49229C155.672 7.54679 154.897 6.83128 153.966 6.83128C153.01 6.83128 152.261 7.54679 152.261 8.49229C152.261 9.43778 153.01 10.1533 153.966 10.1533ZM155.362 25.4601V12.2743H152.571V25.4601H155.362Z" fill="#EE5A3A"/>
<path d="M160.399 15.5707C160.399 14.7019 161.123 14.1397 162.157 14.1397C163.423 14.1397 164.302 14.9319 164.742 15.9541L166.732 14.8297C166.034 13.1942 164.586 11.8654 162.105 11.8654C159.624 11.8654 157.788 13.552 157.788 15.5963C157.788 17.7684 159.055 18.6883 160.683 19.4294L162.208 20.1449C163.449 20.7071 163.966 21.1926 163.966 21.9337C163.966 22.9814 163.191 23.5436 162.079 23.5436C160.502 23.5436 159.572 22.3937 159.339 21.2948L157.194 22.4703C157.659 24.2591 159.21 25.869 162.002 25.869C164.922 25.869 166.732 24.2335 166.732 21.9592C166.732 19.9405 165.491 18.9439 163.863 18.1772L162.157 17.3595C160.916 16.7973 160.399 16.3629 160.399 15.5707Z" fill="#EE5A3A"/>
<path d="M170.287 10.1533C171.218 10.1533 171.993 9.43778 171.993 8.49229C171.993 7.54679 171.218 6.83128 170.287 6.83128C169.331 6.83128 168.581 7.54679 168.581 8.49229C168.581 9.43778 169.331 10.1533 170.287 10.1533ZM171.683 25.4601V12.2743H168.891V25.4601H171.683Z" fill="#EE5A3A"/>
<path d="M180.669 25.869C184.753 25.869 187.777 22.8792 187.777 18.8672C187.777 14.8297 184.753 11.8654 180.669 11.8654C176.585 11.8654 173.587 14.8297 173.587 18.8672C173.587 22.8792 176.559 25.869 180.669 25.869ZM180.669 23.3903C178.188 23.3903 176.404 21.4737 176.404 18.8417C176.404 16.184 178.188 14.293 180.669 14.293C183.176 14.293 184.934 16.184 184.934 18.8417C184.934 21.4737 183.176 23.3903 180.669 23.3903Z" fill="#EE5A3A"/>
<path d="M189.26 17.0273V25.4601H192.051V17.0784C192.051 15.443 193.215 14.293 194.843 14.293C196.446 14.293 197.609 15.443 197.609 17.0784V25.4601H200.4V17.1295C200.4 13.9864 198.074 11.8654 194.817 11.8654C191.56 11.8654 189.26 13.9608 189.26 17.0273Z" fill="#EE5A3A"/>
<path d="M6.03414 16.0871C6.03414 14.4859 4.72218 13.1879 3.10382 13.1879C1.48547 13.1879 0.171875 14.4859 0.171875 16.0871C0.171875 17.6882 1.48384 18.9862 3.10219 18.9862C4.72055 18.9862 6.03251 17.6882 6.03251 16.0871H6.03414Z" fill="#EE5A3A"/>
<path fill-rule="evenodd" clip-rule="evenodd" d="M29.5988 11.9851H27.2194C26.2138 11.9851 25.3973 11.1789 25.3973 10.1824V7.82829C25.3973 5.5564 23.5345 3.71341 21.2381 3.71341C18.9418 3.71341 17.079 5.5564 17.079 7.82829V10.1824C17.079 11.1773 16.2641 11.9851 15.2569 11.9851H12.8775C10.5811 11.9851 8.7183 13.8281 8.7183 16.1C8.7183 18.3719 10.5811 20.2149 12.8775 20.2149H15.2569C16.2625 20.2149 17.079 21.0211 17.079 22.0175V24.3717C17.079 26.6436 18.9418 28.4866 21.2381 28.4866C23.5345 28.4866 25.3973 26.6436 25.3973 24.3717V22.0175C25.3973 21.0227 26.2122 20.2149 27.2194 20.2149H29.5988C31.8952 20.2149 33.758 18.3719 33.758 16.1C33.758 13.8281 31.8952 11.9851 29.5988 11.9851ZM21.2381 20.0649C19.0151 20.0649 17.2143 18.2832 17.2143 16.0839C17.2143 13.8845 19.0151 12.1028 21.2381 12.1028C23.4611 12.1028 25.262 13.8845 25.262 16.0839C25.262 18.2832 23.4611 20.0649 21.2381 20.0649Z" fill="#FFA558"/>
<path d="M13.5488 26.1985C10.4229 26.1985 10.6185 26.1985 10.6185 23.2994C10.6185 21.6983 9.30655 20.4003 7.68819 20.4003C6.06983 20.4003 4.75787 21.6983 4.75787 23.2994C4.75787 24.9005 6.06983 26.1985 7.68819 26.1985C10.6788 26.1985 10.6201 26.1985 10.6201 29.0977V29.1009C10.6201 29.4024 10.6527 29.6346 10.7098 29.8103C11.0308 31.068 12.1815 32 13.5521 32C15.1704 32 16.4824 30.702 16.4824 29.1009C16.4824 27.4998 15.1704 26.2018 13.5521 26.2018L13.5488 26.1985Z" fill="url(#paint0_linear_2991_90)"/>
<path d="M10.617 2.90235C10.617 5.99496 10.617 5.80147 7.68665 5.80147C6.0683 5.80147 4.75634 7.09947 4.75634 8.70059C4.75634 10.3017 6.0683 11.5997 7.68665 11.5997C9.30501 11.5997 10.617 10.3017 10.617 8.70059C10.617 5.74181 10.617 5.79986 13.5473 5.79986H13.5505C13.8553 5.79986 14.09 5.76761 14.2676 5.71118C15.5389 5.39353 16.4809 4.25517 16.4809 2.89912C16.4809 1.298 15.1689 1.90735e-06 13.5505 1.90735e-06C11.9322 1.90735e-06 10.6202 1.298 10.6202 2.89912L10.617 2.90235Z" fill="url(#paint1_linear_2991_90)"/>
<defs>
<linearGradient id="paint0_linear_2991_90" x1="4.75787" y1="26.2001" x2="16.4824" y2="26.2001" gradientUnits="userSpaceOnUse">
<stop stop-color="#EE5A3A"/>
<stop offset="1" stop-color="#FFA558"/>
</linearGradient>
<linearGradient id="paint1_linear_2991_90" x1="4.75634" y1="5.79986" x2="16.4809" y2="5.79986" gradientUnits="userSpaceOnUse">
<stop stop-color="#EE5A3A"/>
<stop offset="1" stop-color="#FFA558"/>
</linearGradient>
</defs>
</svg>
