<svg width="63" height="46" viewBox="0 0 63 46" fill="none" xmlns="http://www.w3.org/2000/svg">
<g clip-path="url(#clip0_501_1286)">
<mask id="mask0_501_1286" style="mask-type:luminance" maskUnits="userSpaceOnUse" x="0" y="12" width="29" height="25">
<path d="M25.2361 33.5645C22.7535 35.9659 19.5544 36.3709 18.2011 36.4422C13.7695 36.676 9.7157 34.9238 6.27343 33.2838C5.8447 33.0831 5.47819 32.7715 5.21231 32.3816C2.93419 28.9916 1.26296 25.2359 0.272406 21.2803C-0.124071 19.7558 -0.0871268 18.1519 0.379129 16.647C0.751788 15.4736 1.34664 14.4107 2.33077 13.6519C3.53448 12.7272 5.14671 12.4456 6.65921 12.609C10.8888 13.0601 14.0004 16.0551 17.4812 18.1462C19.983 19.6507 23.4901 20.8205 26.2483 19.3239C26.3209 19.2848 26.3926 19.2439 26.4635 19.2004C28.7396 24.1206 29.6206 29.3232 25.2361 33.5645Z" fill="white"/>
</mask>
<g mask="url(#mask0_501_1286)">
<path d="M25.2239 33.5715C22.7413 35.9729 19.5378 36.3779 18.1889 36.4491C13.7581 36.6829 9.7035 34.9308 6.26122 33.2907C5.8328 33.0895 5.46641 32.778 5.20011 32.3886C2.92248 28.9983 1.25129 25.2426 0.2602 21.2872C-0.136277 19.7627 -0.0993353 18.1588 0.366921 16.6539C0.739579 15.4806 1.33444 14.4176 2.31857 13.6589C3.52315 12.7341 5.1345 12.4525 6.647 12.6159C10.8766 13.0661 13.9891 16.0655 17.4646 18.1566C19.9665 19.6611 23.4735 20.8309 26.2317 19.3343C26.3043 19.2952 26.3769 19.2543 26.4469 19.2109C28.7274 24.1232 29.6092 29.3258 25.2239 33.5715Z" fill="#B08EC1"/>
<path d="M-0.747522 21.8834C-0.747522 21.8834 9.1253 12.9314 19.7391 21.5792C30.3528 30.2271 35.4528 33.8722 35.4528 33.8722L34.6366 45.4212L6.76513 51.6354C6.76513 51.6354 -6.83165 43.9358 -6.76342 42.0446C-6.69518 40.1534 -0.747522 21.8834 -0.747522 21.8834Z" fill="#EF5327"/>
<path d="M-5.8457 25.054L1.49637 20.1869C1.49637 20.1869 17.1314 21.8156 24.2696 28.7043C33.2082 37.3313 35.9288 47.7843 35.9288 47.7843L21.6523 51.7023C21.6523 51.7023 -0.645107 44.6789 -0.714215 44.4755C-0.783323 44.2722 -5.8457 25.054 -5.8457 25.054Z" fill="url(#paint0_linear_501_1286)"/>
<path d="M1.60209 20.2008L-0.359177 21.5392L-0.451904 20.0339L1.60209 20.2008Z" fill="#A52E1E"/>
<path d="M30.3406 24.33C21.3469 31.3986 12.3637 35.0785 -0.391487 32.2756C-9.17957 30.3453 -2.8715 37.958 -0.920731 39.7501C1.23386 41.7265 4.4347 45.336 7.6679 47.116C10.0736 48.4414 20.3943 45.794 23.8094 44.791C25.1085 44.4095 35.5429 43.1467 35.4143 33.3185C35.3268 26.6636 37.7561 23.5435 32.8075 23.3853C31.5906 23.341 30.6494 24.0884 30.3406 24.33Z" fill="url(#paint1_linear_501_1286)"/>
</g>
<path d="M26.6384 27.0426L27.8727 27.9621L27.8666 27.9682L28.3486 28.3002L29.5042 24.9906L26.6384 27.0426Z" fill="#794F91"/>
<mask id="mask1_501_1286" style="mask-type:luminance" maskUnits="userSpaceOnUse" x="5" y="0" width="58" height="46">
<path d="M62.2701 11.7755C62.2801 16.316 61.44 20.8187 59.7927 25.054C54.9814 37.3591 43.687 46 30.5198 46C20.1912 46 11.0121 40.687 5.21924 32.4581C8.79536 34.1781 13.0836 36.178 17.7978 35.9294C19.1511 35.8573 22.3467 35.4523 24.831 33.0517C29.2146 28.8121 28.3302 23.6104 26.0557 18.692C24.5021 15.3415 22.3012 12.1257 20.6749 9.43491C19.6016 7.66189 18.8711 5.48298 19.6619 3.45878C21.0765 -0.181127 25.684 -0.424482 28.9583 0.375116C33.6314 1.51367 37.6344 4.48348 41.7301 6.75886C45.3115 8.74656 49.1299 10.5204 53.2773 10.802C55.9375 10.9759 58.5356 10.3023 60.1741 8.1008C60.7593 7.31163 61.2413 6.51029 61.775 5.75415C62.1042 7.74458 62.2698 9.75834 62.2701 11.7755Z" fill="white"/>
</mask>
<g mask="url(#mask1_501_1286)">
<path d="M66.9618 -4.59283H2.92407V52.8174H66.9618V-4.59283Z" fill="#E0CEE5"/>
<path d="M16.3441 47.7852C16.1228 47.6235 17.7333 45.515 17.8653 45.3516C18.8145 44.1914 19.8563 43.109 20.9805 42.115C23.9191 39.4644 27.2537 37.2828 30.8655 35.6478C31.9768 35.1472 33.1159 34.7099 34.2772 34.338C35.0435 34.0929 35.836 33.9035 36.5516 33.5298C37.1334 33.2273 37.6495 32.7936 37.9513 32.2043C38.4761 31.1762 38.3012 30.0141 38.2478 28.9069C38.1753 27.5319 37.9865 26.1655 37.6836 24.822C37.6565 24.6985 37.6285 24.576 37.5961 24.4534L48.6411 26.7801L60.9231 41.9351L33.4811 51.0948L20.2246 50.622L16.3441 47.7852Z" fill="url(#paint2_linear_501_1286)"/>
<path d="M45.1541 7.03095C41.6235 8.64579 38.1882 12.7759 37.589 17.9993C36.8603 24.344 38.5311 26.3491 38.0929 32.9753C37.365 44.0011 31.2424 47.9773 32.9378 50.2901C34.8894 52.9531 44.7552 49.0081 52.3851 42.3289C56.9454 38.3309 58.946 34.159 62.6953 26.3499C65.6495 20.1948 66.7132 15.903 66.3379 11.374C66.1367 8.94042 65.8918 5.98539 63.8168 4.63737C61.7418 3.28935 59.351 4.51135 52.1052 5.91759C49.0609 6.50773 46.9142 6.81193 45.1541 7.03095Z" fill="url(#paint3_linear_501_1286)" stroke="#107C87" stroke-width="1.55423" stroke-miterlimit="10"/>
</g>
</g>
<defs>
<linearGradient id="paint0_linear_501_1286" x1="19.0857" y1="15.1911" x2="11.3547" y2="56.3079" gradientUnits="userSpaceOnUse">
<stop stop-color="#D91E09"/>
<stop offset="0.12" stop-color="#D51F0C"/>
<stop offset="0.24" stop-color="#C92315"/>
<stop offset="0.36" stop-color="#B52A25"/>
<stop offset="0.47" stop-color="#9A3339"/>
</linearGradient>
<linearGradient id="paint1_linear_501_1286" x1="37.3749" y1="23.2627" x2="-0.279826" y2="45.369" gradientUnits="userSpaceOnUse">
<stop stop-color="#A52E1D"/>
<stop offset="0.22" stop-color="#A23126"/>
<stop offset="0.59" stop-color="#993840"/>
<stop offset="0.65" stop-color="#973945"/>
</linearGradient>
<linearGradient id="paint2_linear_501_1286" x1="23.1525" y1="36.1102" x2="48.5395" y2="42.0178" gradientUnits="userSpaceOnUse">
<stop offset="0.04" stop-color="#C0A6CC"/>
<stop offset="0.1" stop-color="#B9A4C9"/>
<stop offset="0.18" stop-color="#A49FC2"/>
<stop offset="0.28" stop-color="#8297B6"/>
<stop offset="0.39" stop-color="#548CA5"/>
<stop offset="0.51" stop-color="#197E90"/>
<stop offset="0.53" stop-color="#0F7C8C"/>
</linearGradient>
<linearGradient id="paint3_linear_501_1286" x1="32.6421" y1="27.591" x2="66.4079" y2="27.591" gradientUnits="userSpaceOnUse">
<stop offset="0.19" stop-color="#0E999C"/>
<stop offset="0.26" stop-color="#1C9AA0"/>
<stop offset="0.47" stop-color="#459DAB"/>
<stop offset="0.67" stop-color="#629EB3"/>
<stop offset="0.83" stop-color="#74A0B8"/>
<stop offset="0.95" stop-color="#7AA0BA"/>
</linearGradient>
<clipPath id="clip0_501_1286">
<rect width="62.2702" height="46" fill="white"/>
</clipPath>
</defs>
</svg>
