<?xml version="1.0" encoding="UTF-8"?>
<svg version="1.1" xmlns="http://www.w3.org/2000/svg" width="992" height="1056">
<path d="M0 0 C327.36 0 654.72 0 992 0 C992 348.48 992 696.96 992 1056 C664.64 1056 337.28 1056 0 1056 C0 707.52 0 359.04 0 0 Z " fill="#FAFBFB" transform="translate(0,0)"/>
<path d="M0 0 C0.92451608 -0.00325102 1.84903217 -0.00650204 2.80156389 -0.00985157 C5.91658105 -0.01955847 9.03156343 -0.02214433 12.14659405 -0.02475739 C14.39577306 -0.03020352 16.64495109 -0.03606695 18.89412802 -0.0423131 C25.08859895 -0.05817633 31.2830659 -0.06768359 37.47755086 -0.07607794 C43.46814232 -0.08510447 49.45872298 -0.09874234 55.44930615 -0.11201844 C73.02740035 -0.15054337 90.60550919 -0.17555551 108.18362996 -0.19819555 C110.46156114 -0.20113965 112.73949226 -0.20412967 115.01742336 -0.20713353 C144.00606433 -0.24529202 172.99471065 -0.27879426 201.98336902 -0.30039268 C209.35179828 -0.30588656 216.72022738 -0.31158619 224.08865643 -0.31735992 C224.9028288 -0.31799235 225.71700118 -0.31862478 226.55584545 -0.31927637 C252.94114541 -0.33994766 279.32632216 -0.38590574 305.71155956 -0.44601261 C332.84577771 -0.50771285 359.97992988 -0.54661072 387.11421925 -0.55589593 C390.94942996 -0.5572126 394.78464055 -0.55877455 398.61985111 -0.56047821 C399.75200918 -0.5609664 399.75200918 -0.5609664 400.90703912 -0.56146445 C413.03707454 -0.56733309 425.16694114 -0.59687506 437.29691261 -0.63518443 C449.49904337 -0.6731718 461.70098812 -0.68530371 473.90317187 -0.67142183 C480.5097376 -0.66459966 487.11589042 -0.66977374 493.72240543 -0.70529556 C499.77729909 -0.73758937 505.83130265 -0.73722397 511.88621958 -0.71147853 C514.0700689 -0.7078416 516.25397784 -0.71591685 518.43772588 -0.73726004 C534.98812151 -0.88919729 548.72658236 1.5460199 561.64065838 12.78322601 C571.5369348 23.17861899 578.01062595 35.41341807 578.01259327 49.92390823 C578.01404671 50.59628546 578.01550015 51.26866269 578.01699764 51.96141499 C578.02065237 54.21859007 578.01717366 56.4756974 578.01373577 58.73287201 C578.01488779 60.36577109 578.01647585 61.99866991 578.01846302 63.63156819 C578.02264509 68.12196951 578.0205707 72.61234962 578.0174768 77.10275102 C578.01521845 81.94390143 578.01870444 86.78504814 578.02145672 91.62619781 C578.02590832 101.11019909 578.02494076 110.59419246 578.02204408 120.07819405 C578.01978819 127.7821105 578.01947833 135.48602472 578.02056789 143.18994141 C578.02079774 144.83289368 578.02079774 144.83289368 578.02103224 146.50903691 C578.02135195 148.73387851 578.02167616 150.95872011 578.02200483 153.18356171 C578.02485769 174.05483813 578.02157534 194.92611015 578.01620446 215.79738584 C578.0117341 233.724797 578.01251464 251.65220169 578.01712322 269.57961273 C578.02246809 290.38102521 578.02458566 311.18243384 578.02151096 331.9838469 C578.0211924 334.19940583 578.02087802 336.41496475 578.02056789 338.63052368 C578.02041362 339.72073159 578.02025934 340.81093949 578.02010039 341.934184 C578.01923516 349.63522618 578.0206982 357.33626593 578.02304745 365.03730774 C578.02584456 374.41278599 578.02510897 383.78825587 578.0197667 393.16373315 C578.01712886 397.95162649 578.01612605 402.73950582 578.01941586 407.52739906 C578.02237698 411.90289507 578.02078912 416.27836398 578.0154383 420.6538575 C578.01431336 422.24389002 578.01490699 423.83392479 578.01731409 425.42395589 C578.02031711 427.57089011 578.01727465 429.71772926 578.01259327 431.86465836 C578.01243092 433.06148452 578.01226856 434.25831068 578.01210129 435.49140429 C577.88675213 438.14260101 577.88675213 438.14260101 576.88675213 439.14260101 C575.06799616 439.24372154 573.24526824 439.27368434 571.42370605 439.27682209 C570.23061052 439.28127993 569.03751498 439.28573778 567.80826503 439.29033071 C566.46726532 439.2902414 565.12626561 439.29005152 563.78526592 439.28977203 C562.37387146 439.29306875 560.96247795 439.29679391 559.55108565 439.30091351 C555.65418745 439.31096379 551.75730465 439.31465516 547.86039531 439.31730282 C543.66461488 439.32119701 539.46884676 439.33077603 535.27307415 439.33951569 C525.13025429 439.35930663 514.98743339 439.36935025 504.84459904 439.37824348 C500.07209125 439.38262263 495.29958458 439.38799045 490.52707767 439.39323235 C474.66823876 439.41024829 458.80940054 439.42474292 442.95055389 439.43198109 C438.83220004 439.43389109 434.71384619 439.43581141 430.59549236 439.43776703 C429.06003011 439.43849264 429.06003011 439.43849264 427.49354842 439.43923291 C410.90775724 439.44753482 394.32203815 439.47287283 377.73627845 439.50534771 C360.72048963 439.53839376 343.70473747 439.55642768 326.68891639 439.55962533 C317.13015508 439.56179285 307.57149884 439.57057669 298.01276875 439.5960865 C289.87248043 439.61776014 281.7323227 439.62586047 273.59200881 439.61611972 C269.43733478 439.61156511 265.28293035 439.61352824 261.12829304 439.63288116 C257.32524552 439.65044355 253.52266564 439.64957199 249.71961363 439.63398387 C247.69104022 439.63046593 245.6624623 439.64668575 243.63395625 439.66358835 C232.65287628 439.58546481 232.65287628 439.58546481 227.88675213 435.14260101 C225.78909588 432.75978851 225.78909588 432.75978851 223.82425213 430.01760101 C222.66796307 428.42238617 222.66796307 428.42238617 221.48831463 426.79494476 C221.07226971 426.21083832 220.65622478 425.62673187 220.22757244 425.02492523 C218.79742084 423.01719238 217.35503732 421.01868796 215.91018963 419.02150726 C214.28320717 416.77191141 212.65717345 414.52167349 211.03470135 412.26882172 C205.31178943 404.32418009 199.49868606 396.44730579 193.6792326 388.57326508 C191.83819771 386.07675958 190.00421359 383.57520687 188.17190838 381.07228851 C166.79121826 351.88176646 142.29269087 322.99729427 107.13675213 310.51760101 C106.05780682 310.13152679 104.9788615 309.74545258 103.86722088 309.34767914 C93.39654182 305.74111191 82.84557624 303.60461846 71.88675213 302.14260101 C70.89711468 301.99335175 70.89711468 301.99335175 69.88748455 301.84108734 C48.60902192 298.96881631 24.60117198 299.58775455 3.88675213 305.14260101 C3.06626385 305.35690765 2.24577557 305.57121429 1.400424 305.79201508 C-10.15032298 308.89418989 -20.66320402 313.36308697 -31.11324787 319.14260101 C-32.10324787 319.68980804 -32.10324787 319.68980804 -33.11324787 320.24806976 C-38.19746255 323.0781502 -43.2694866 325.91342683 -48.11324787 329.14260101 C-49.43324787 329.14260101 -50.75324787 329.14260101 -52.11324787 329.14260101 C-52.20487019 292.78478229 -52.27532048 256.42698386 -52.31750919 220.06907339 C-52.32251182 215.77343267 -52.32768912 211.47779218 -52.33297443 207.18215179 C-52.33402368 206.32699308 -52.33507292 205.47183437 -52.33615395 204.59076175 C-52.35354333 190.75723324 -52.3850729 176.92377145 -52.42185906 163.09028247 C-52.45930937 148.88823284 -52.48149236 134.68621807 -52.48960185 120.48412108 C-52.49508115 111.72573419 -52.51236606 102.9675359 -52.54491374 94.20920709 C-52.56611218 88.19741308 -52.5724359 82.1857161 -52.56725338 76.17388746 C-52.56469984 72.7090657 -52.56852127 69.24457275 -52.59006977 65.77980995 C-52.61005647 62.01337549 -52.60515433 58.24773916 -52.59426594 54.4812851 C-52.6059173 53.39953703 -52.61756867 52.31778897 -52.62957311 51.20326066 C-52.52292963 37.4965187 -47.06250538 24.93226278 -37.85543537 14.79494476 C-27.17324897 4.66363344 -14.48321476 -0.01054542 0 0 Z " fill="#121315" transform="translate(220.11324787139893,203.8573989868164)"/>
<path d="M0 0 C1.71799805 -0.01836914 1.71799805 -0.01836914 3.47070312 -0.03710938 C9.37074147 -0.04734657 14.30616407 0.26081244 19.9375 2.1875 C21.39145234 2.51277957 22.84882719 2.82299009 24.30859375 3.12109375 C56.75430241 10.19778629 82.05685236 31.47914022 101.59277344 57.42822266 C103.43437943 59.83755685 105.34658093 62.18623773 107.25952148 64.5390625 C119.07094384 79.08810363 129.98751764 94.26981609 140.12158203 110.02880859 C165.59991914 149.64673776 201.53475852 181.15434377 243.05859375 203.18408203 C244.98885346 204.21492499 246.90090931 205.27482828 248.8125 206.33984375 C257.30674543 211.01931448 266.01045883 215.13124039 274.875 219.0625 C276.4381897 219.75931885 276.4381897 219.75931885 278.03295898 220.47021484 C283.52228396 222.86656101 288.95010329 224.94156537 294.72851562 226.52832031 C297.06499248 227.22554484 299.25890495 228.10482571 301.5 229.0625 C312.85291617 233.72147975 324.96938205 236.61559675 336.9375 239.1875 C338.14792969 239.455625 339.35835937 239.72375 340.60546875 240 C349.27482472 241.90013282 357.62191377 243.30650929 366.49609375 243.50390625 C367.67982323 243.5350779 367.67982323 243.5350779 368.88746643 243.56687927 C371.38323109 243.63173305 373.87909178 243.69095805 376.375 243.75 C378.07748348 243.79324642 379.77995762 243.83686256 381.48242188 243.88085938 C385.63401873 243.98734763 389.78571118 244.08879147 393.9375 244.1875 C393.9375 245.1775 393.9375 246.1675 393.9375 247.1875 C385.23113802 249.97573998 376.59481456 252.45404829 367.5625 253.9375 C366.86334473 254.05262939 366.16418945 254.16775879 365.44384766 254.28637695 C363.27819816 254.62070067 361.11166521 254.9140439 358.9375 255.1875 C358.18218994 255.28321289 357.42687988 255.37892578 356.64868164 255.47753906 C347.173714 256.50524476 337.64420363 256.43119214 328.125 256.4375 C327.2098764 256.43817474 326.29475281 256.43884949 325.35189819 256.43954468 C311.6696054 256.42352343 298.37643336 255.97711284 284.9375 253.1875 C284.02033203 252.99994141 283.10316406 252.81238281 282.15820312 252.61914062 C275.71706924 251.27524436 269.31646802 249.80006337 262.9375 248.1875 C261.2354541 247.76283447 261.2354541 247.76283447 259.49902344 247.32958984 C250.16352322 244.93032473 241.11431282 241.99253361 232.0625 238.6875 C231.3575943 238.4323764 230.6526886 238.17725281 229.92642212 237.91439819 C216.89717824 233.17760774 204.49004774 227.57101594 192.1628418 221.2121582 C190.08575074 220.25576202 188.1699679 219.65354245 185.9375 219.1875 C195.77227749 255.32608955 212.397832 284.98532931 245.48046875 304.28125 C247.57618039 305.48020343 249.6829521 306.66022595 251.8046875 307.8125 C252.50851562 308.26625 253.21234375 308.72 253.9375 309.1875 C253.9375 309.8475 253.9375 310.5075 253.9375 311.1875 C222.61526565 308.6126233 189.09639123 293.00742704 168.31640625 269.203125 C159.28366876 257.75275827 155.10141735 244.96076072 150.9375 231.1875 C149.16824657 232.95675343 149.8090853 235.30374656 149.79855347 237.65988159 C149.8005777 238.42954254 149.80260193 239.19920349 149.8046875 239.9921875 C149.80373077 240.78593781 149.80277405 241.57968811 149.80178833 242.39749146 C149.80110576 244.08726073 149.80296535 245.77703259 149.80712891 247.46679688 C149.81240583 250.01698973 149.80722362 252.56700069 149.80078125 255.1171875 C149.79393725 266.72382464 149.89783686 277.90395653 153.1875 289.125 C153.52128662 290.28539795 153.52128662 290.28539795 153.86181641 291.46923828 C160.41280786 313.66135663 171.11752587 329.36684705 190.9375 341.1875 C191.9275 341.8475 192.9175 342.5075 193.9375 343.1875 C193.9375 343.8475 193.9375 344.5075 193.9375 345.1875 C168.95929047 341.41513111 146.82812908 325.59669538 131.40234375 306.06640625 C125.31754789 297.7063351 121.05147196 288.63373955 116.9375 279.1875 C116.66067383 278.55948486 116.38384766 277.93146973 116.09863281 277.28442383 C107.54992227 257.69231446 107.41508693 235.21715669 106.9375 214.1875 C106.2775 214.1875 105.6175 214.1875 104.9375 214.1875 C104.53337891 215.45400391 104.53337891 215.45400391 104.12109375 216.74609375 C102.47065209 221.54490267 100.45518418 226.17781424 98.47265625 230.84765625 C94.29460411 241.97524656 93.36306444 252.9922902 93.4375 264.75 C93.43926239 265.49595428 93.44102478 266.24190857 93.44284058 267.01046753 C93.50750936 279.3164599 94.69510801 290.54701877 98.9375 302.1875 C99.18387207 302.88439941 99.43024414 303.58129883 99.68408203 304.29931641 C104.01336684 316.27672526 109.98663077 327.56909735 115.81176758 338.87011719 C116.97728551 341.26940068 117.97601268 343.70023994 118.9375 346.1875 C96.03213862 339.42854091 79.13978167 322.80118664 67.89160156 302.27929688 C50.27988326 269.23872113 50.40312019 233.63192705 49.9375 197.1875 C49.2775 196.8575 48.6175 196.5275 47.9375 196.1875 C47.76081787 196.72769775 47.58413574 197.26789551 47.40209961 197.82446289 C46.07704544 201.84190977 44.71531156 205.83854128 43.25390625 209.80859375 C39.22779635 220.81291612 36.18142147 231.69041851 33.9375 243.1875 C33.7624292 243.93128906 33.5873584 244.67507813 33.40698242 245.44140625 C32.81352918 248.91262939 32.73733242 252.3362605 32.69921875 255.84765625 C32.6894249 256.58567978 32.67963104 257.32370331 32.66954041 258.08409119 C32.50302136 273.89345312 32.59654697 288.86862695 36.9375 304.1875 C37.37839044 305.89172386 37.81846685 307.59615849 38.2578125 309.30078125 C40.87898013 319.04357748 44.31735118 327.69566196 49.3984375 336.4140625 C50.9375 339.1875 50.9375 339.1875 50.9375 341.1875 C30.12591823 335.14542787 16.22642575 312.01000818 6.17700195 294.27124023 C-0.47388201 282.12158523 -6.30354051 268.81675987 -9.0625 255.1875 C-9.33835937 253.91261719 -9.61421875 252.63773438 -9.8984375 251.32421875 C-13.70896937 231.99137322 -13.86556353 210.54157033 -10.0625 191.1875 C-9.81258301 189.90238525 -9.81258301 189.90238525 -9.55761719 188.59130859 C-7.37920813 177.68985739 -5.02719633 167.20139812 -0.0625 157.1875 C-0.7225 157.1875 -1.3825 157.1875 -2.0625 157.1875 C-2.2790625 157.73792969 -2.495625 158.28835938 -2.71875 158.85546875 C-4.49999016 161.94674891 -6.97932685 164.09371237 -9.5625 166.5 C-29.7438955 186.09973765 -39.59211327 214.8122263 -40.24609375 242.53125 C-40.46816132 258.55731445 -39.39489962 273.81297584 -36.4296875 289.57421875 C-36.02235306 292.47322666 -36.0025698 295.2637622 -36.0625 298.1875 C-50.06919129 292.03209307 -60.45678617 272.78819425 -66.2578125 259.28027344 C-68.39464562 253.72295138 -69.62212306 247.94476065 -70.70410156 242.10400391 C-71.01691325 240.43127109 -71.37570696 238.76726845 -71.7421875 237.10546875 C-73.97862214 225.66288878 -73.31343576 213.78784519 -73.0625 202.1875 C-73.04848145 201.4361377 -73.03446289 200.68477539 -73.02001953 199.91064453 C-72.450403 176.22751614 -64.71779406 153.02170407 -56.0625 131.1875 C-55.7830957 130.48061035 -55.50369141 129.7737207 -55.21582031 129.04541016 C-53.51548803 124.75231129 -51.79648061 120.46711171 -50.0625 116.1875 C-68.38080004 121.71755284 -84.31304436 139.32397012 -93.28100586 155.56762695 C-98.44955045 165.22525481 -102.25476341 174.60813807 -105.0625 185.1875 C-105.65993618 187.18952082 -106.26313029 189.18984317 -106.875 191.1875 C-107.27184067 192.52053387 -107.66814015 193.85373011 -108.0625 195.1875 C-109.0525 195.1875 -110.0425 195.1875 -111.0625 195.1875 C-113.50089756 189.19918462 -114.98285137 183.41717059 -116.125 177.0625 C-116.28548828 176.21429687 -116.44597656 175.36609375 -116.61132812 174.4921875 C-117.12341058 171.72817618 -117.59762763 168.95983397 -118.0625 166.1875 C-118.24490234 165.14601807 -118.42730469 164.10453613 -118.61523438 163.03149414 C-120.18641177 153.28836409 -120.45963782 143.71784466 -120.4375 133.875 C-120.43768127 132.63183517 -120.43768127 132.63183517 -120.43786621 131.36355591 C-120.40821873 117.02227526 -119.27427118 103.20458707 -116.0625 89.1875 C-115.77375 87.9190625 -115.485 86.650625 -115.1875 85.34375 C-110.40286933 67.74314432 -100.05827958 51.63592843 -87.48876953 38.66503906 C-86.11058773 37.23731632 -84.75597059 35.78696187 -83.40234375 34.3359375 C-72.24760128 22.67192107 -59.6642277 14.83480377 -45.0625 8.1875 C-43.92554688 7.66285156 -42.78859375 7.13820313 -41.6171875 6.59765625 C-37.65908542 5.02746411 -33.76984032 3.99518234 -29.625 3.0625 C-28.55668945 2.80919922 -28.55668945 2.80919922 -27.46679688 2.55078125 C-18.26228793 0.42730689 -9.42549508 0.00532213 0 0 Z " fill="#121315" transform="translate(278.0625,518.8125)"/>
<path d="M0 0 C41.89563244 -0.02286463 83.79126416 -0.04049734 125.6869016 -0.05106533 C130.62761214 -0.05231611 135.56832268 -0.05361042 140.5090332 -0.05493164 C141.49268315 -0.05519395 142.4763331 -0.05545626 143.48979063 -0.05572652 C159.43880447 -0.06008359 175.38781472 -0.06797134 191.33682644 -0.0771528 C207.68924049 -0.08648831 224.04165265 -0.09205539 240.39406925 -0.09408849 C250.49287845 -0.09546394 260.5916775 -0.09981566 270.69048358 -0.10791647 C277.60577683 -0.11318266 284.52106482 -0.11480459 291.43635993 -0.11350138 C295.43234158 -0.1128578 299.42830546 -0.11387774 303.42428398 -0.11920547 C307.0764638 -0.12403957 310.72861375 -0.12433859 314.38079489 -0.12089889 C316.3405197 -0.12027027 318.30024412 -0.12461191 320.25996393 -0.12908131 C321.40799212 -0.12709026 322.55602032 -0.12509921 323.73883724 -0.12304783 C324.73788143 -0.12342755 325.73692562 -0.12380727 326.76624388 -0.1241985 C329 0 329 0 330 1 C330.10450769 2.95280184 330.13855374 4.90940545 330.14526367 6.86499023 C330.15483345 8.74715492 330.15483345 8.74715492 330.16459656 10.66734314 C330.16612512 12.04775962 330.16723914 13.42817662 330.16796875 14.80859375 C330.17117967 16.21484919 330.17454362 17.62110429 330.17805481 19.02735901 C330.18405232 21.97894058 330.18589408 24.93049284 330.18530273 27.88208008 C330.18520109 31.66980046 330.19885285 35.45733347 330.21607494 39.24500942 C330.22717742 42.15058765 330.22922248 45.05612033 330.22869301 47.96171761 C330.2298758 49.35840564 330.23431421 50.75509476 330.24202538 52.15176201 C330.25178925 54.10302201 330.24769234 56.05433664 330.24291992 58.00561523 C330.24434494 59.11734604 330.24576996 60.22907684 330.24723816 61.37449646 C330 64 330 64 328 66 C324.92068647 66.20475396 321.93056908 66.28235442 318.84953308 66.27415466 C317.88919468 66.27939134 316.92885627 66.28462802 315.93941671 66.29002339 C312.70069932 66.30510182 309.46213884 66.30573027 306.22338867 66.30639648 C303.90923798 66.31401314 301.59508984 66.32243978 299.28094482 66.33161926 C292.9766676 66.35363043 286.6724389 66.362373 280.36812758 66.36744571 C276.42851606 66.37108401 272.48891734 66.37732157 268.54931068 66.3844471 C257.63501207 66.40391774 246.72072411 66.42041961 235.80640697 66.42332363 C234.757932 66.42360499 234.757932 66.42360499 233.68827571 66.42389202 C232.27129638 66.42425827 230.85431705 66.42462197 229.43733772 66.42498314 C228.38228011 66.42525735 228.38228011 66.42525735 227.3059082 66.42553711 C226.60167354 66.42571766 225.89743888 66.42589821 225.17186377 66.42608423 C213.78343517 66.42961906 202.39519648 66.45659283 191.00683364 66.494035 C179.30541901 66.53219691 167.60409833 66.55148173 155.90262014 66.55178314 C149.33657767 66.55257523 142.77077962 66.56128146 136.20479393 66.58978081 C130.02004254 66.61602164 123.83573701 66.61813258 117.6509552 66.60212517 C115.38753599 66.600315 113.12409082 66.60696201 110.86072731 66.62294388 C98.86478398 66.70244345 88.85801775 66.63059957 78 61 C77.13847415 60.59220023 76.2769483 60.18440046 75.38931561 59.76424313 C73.13890662 58.6952772 70.94484202 57.55354578 68.75 56.375 C67.94844482 55.94751465 67.14688965 55.5200293 66.32104492 55.07958984 C48.35894088 45.34120617 31.47669725 33.49882518 16.6171875 19.46484375 C14.33821891 17.31853154 12.01279413 15.2728671 9.625 13.25 C6.09853676 10.18094412 2.57056991 6.93375092 0 3 C0 2.01 0 1.02 0 0 Z " fill="#D20302" transform="translate(468,660)"/>
<path d="M0 0 C1.09717094 -0.0149778 1.09717094 -0.0149778 2.21650696 -0.03025818 C3.76561842 -0.045441 5.31482789 -0.05248391 6.86401367 -0.05200195 C9.21376728 -0.05852569 11.55920486 -0.11288218 13.90820312 -0.16992188 C27.50579321 -0.32291995 27.50579321 -0.32291995 33.21411133 4.91821289 C37.21538293 9.66492688 36.95910317 13.32281606 36.87890625 19.32421875 C36.33612296 24.58404731 34.2287104 26.8259771 30.55078125 30.50390625 C31.38222656 31.08398438 31.38222656 31.08398438 32.23046875 31.67578125 C32.95492187 32.1965625 33.679375 32.71734375 34.42578125 33.25390625 C35.14507812 33.764375 35.864375 34.27484375 36.60546875 34.80078125 C39.5655077 37.3923013 40.42791923 39.3726183 40.8515625 43.2734375 C40.88179762 51.12449044 40.31454215 55.9272745 35.42578125 62.25390625 C27.98069157 68.08049817 19.42386932 68.00865279 10.27416992 67.94995117 C8.22410549 67.94134675 6.1767502 67.97044033 4.12695312 68.00195312 C2.82693359 68.00130859 1.52691406 68.00066406 0.1875 68 C-0.99110596 68.00185303 -2.16971191 68.00370605 -3.3840332 68.00561523 C-7.15850623 67.38781021 -8.10922635 66.47793932 -10.44921875 63.50390625 C-10.95042419 60.76524353 -10.95042419 60.76524353 -10.95092773 57.58959961 C-10.96030869 56.39833969 -10.96968964 55.20707977 -10.97935486 53.97972107 C-10.96812088 52.69735062 -10.9568869 51.41498016 -10.9453125 50.09375 C-10.94676773 48.77476212 -10.94822296 47.45577423 -10.94972229 46.09681702 C-10.95110518 43.30840044 -10.9385663 40.52049894 -10.91577148 37.73217773 C-10.88735858 34.15856753 -10.89013263 30.58581109 -10.9028616 27.01213741 C-10.91148795 23.60175199 -10.89637565 20.19162099 -10.8828125 16.78125 C-10.88574814 15.49685532 -10.88868378 14.21246063 -10.89170837 12.8891449 C-10.8790242 11.70103714 -10.86634003 10.51292938 -10.85327148 9.28881836 C-10.8478685 8.24165146 -10.84246552 7.19448456 -10.8368988 6.11558533 C-10.44921875 3.50390625 -10.44921875 3.50390625 -9.13238525 1.66958618 C-6.35439593 -0.25431522 -3.26462568 0.01550053 0 0 Z " fill="#F4F4F3" transform="translate(384.44921875,235.49609375)"/>
<path d="M0 0 C1.68401189 0.94359766 3.30400334 1.99954389 4.91015625 3.0703125 C5.09578125 2.1421875 5.09578125 2.1421875 5.28515625 1.1953125 C5.91015625 -0.9296875 5.91015625 -0.9296875 7.91015625 -2.9296875 C10.91015625 -3.1796875 10.91015625 -3.1796875 13.91015625 -2.9296875 C16.47653204 -0.36331171 16.18104796 0.65098621 16.23242188 4.21923828 C16.25163696 5.29440704 16.27085205 6.36957581 16.29064941 7.47732544 C16.29914917 8.64496429 16.30764893 9.81260315 16.31640625 11.015625 C16.3278064 12.21460419 16.33920654 13.41358337 16.35095215 14.64889526 C16.36987728 17.19265196 16.38293007 19.73645798 16.390625 22.28027344 C16.40997552 26.15908582 16.47196584 30.03575092 16.53515625 33.9140625 C16.54822248 36.38540408 16.558721 38.85676083 16.56640625 41.328125 C16.59109985 42.48361847 16.61579346 43.63911194 16.64123535 44.82962036 C16.60469208 51.49073558 15.82967794 55.49482714 11.41053772 60.58860779 C9.65842791 62.31890733 7.98509091 63.77450831 5.84765625 65.0078125 C5.21730469 65.38808594 4.58695313 65.76835937 3.9375 66.16015625 C-4.54425716 69.9679586 -15.89774366 69.09293622 -24.41796875 65.921875 C-26.08984375 65.0703125 -26.08984375 65.0703125 -28.08984375 63.0703125 C-28.33984375 59.5703125 -28.33984375 59.5703125 -28.08984375 56.0703125 C-27.42984375 55.4103125 -26.76984375 54.7503125 -26.08984375 54.0703125 C-22.2602176 54.32143553 -19.16562661 54.60138151 -15.65234375 56.1328125 C-10.5586307 57.99636606 -5.69750792 57.65491765 -0.65234375 55.8203125 C2.09243417 53.94583002 2.95315335 53.202322 3.91015625 50.0703125 C4.29764838 47.74535973 4.63998464 45.41179982 4.91015625 43.0703125 C4.43964844 43.41964844 3.96914063 43.76898438 3.484375 44.12890625 C2.86175781 44.58394531 2.23914063 45.03898437 1.59765625 45.5078125 C0.98277344 45.96027344 0.36789062 46.41273438 -0.265625 46.87890625 C-5.7175746 50.43960139 -12.86278633 49.57307377 -19.08984375 49.0703125 C-25.83575008 46.05874718 -30.72466952 39.7676186 -33.48999023 32.99487305 C-34.50376629 29.74228996 -34.57862434 26.50481389 -34.52734375 23.1328125 C-34.51904541 22.42842041 -34.51074707 21.72402832 -34.50219727 20.99829102 C-34.24612401 13.13110079 -31.95759056 8.88417493 -26.71484375 3.2578125 C-18.45368457 -4.39205583 -9.93179766 -4.86676111 0 0 Z " fill="#F5F5F5" transform="translate(609.08984375,355.9296875)"/>
<path d="M0 0 C0.99 0.66 1.98 1.32 3 2 C3.34057617 4.33837891 3.34057617 4.33837891 3.29296875 7.2265625 C3.28330078 8.2578125 3.27363281 9.2890625 3.26367188 10.3515625 C3.23853516 11.43179687 3.21339844 12.51203125 3.1875 13.625 C3.17396484 14.71296875 3.16042969 15.8009375 3.14648438 16.921875 C3.11104754 19.61507409 3.06164331 22.30729374 3 25 C3.57935303 24.57412598 4.15870605 24.14825195 4.75561523 23.70947266 C11.42407998 19.00045874 15.83791546 17.72885569 24 19 C30.5862346 20.81457484 35.29411889 25.37106707 39 31 C42.3965103 39.12898132 42.38002007 49.19126953 39.5 57.5 C36.79001588 63.28644295 32.32673286 67.38555611 26.609375 70.16015625 C21.10709118 71.93110089 14.78833208 72.22175772 9.44140625 69.87890625 C7.52843503 68.67520065 5.74370462 67.43599204 4 66 C2.9171875 67.2375 2.9171875 67.2375 1.8125 68.5 C-1 71 -1 71 -3.6875 71.5 C-6 71 -6 71 -8 68 C-8.26069641 65.19177246 -8.26069641 65.19177246 -8.2746582 61.74023438 C-8.28419022 60.44879517 -8.29372223 59.15735596 -8.30354309 57.82678223 C-8.30328169 56.41577121 -8.30234477 55.00476018 -8.30078125 53.59375 C-8.30466799 52.14790727 -8.30900262 50.70206569 -8.31376648 49.25622559 C-8.3212275 46.22660621 -8.32093801 43.19710338 -8.31567383 40.16748047 C-8.30987472 36.28340216 -8.32682088 32.39980002 -8.3500185 28.51580048 C-8.36474235 25.53038744 -8.36562949 22.54508951 -8.36250877 19.55964661 C-8.36302252 18.12749792 -8.3682703 16.69534288 -8.37832069 15.26322937 C-8.39064223 13.26211172 -8.38196619 11.26089793 -8.37231445 9.25976562 C-8.37294388 8.12075806 -8.3735733 6.98175049 -8.3742218 5.80822754 C-8 3 -8 3 -6.63298035 1.1282959 C-4.3134563 -0.47436238 -2.75852864 -0.34481608 0 0 Z " fill="#F6F6F6" transform="translate(711,437)"/>
<path d="M0 0 C2.5215021 -0.08172936 5.04029917 -0.14083373 7.5625 -0.1875 C8.26697266 -0.21263672 8.97144531 -0.23777344 9.69726562 -0.26367188 C14.84153384 -0.33479079 18.29254089 0.74906491 23 3 C24.33186655 3.4949112 25.67088889 3.97089518 27.015625 4.4296875 C27.71042969 4.66816406 28.40523437 4.90664063 29.12109375 5.15234375 C30.52397783 5.62855211 31.92760939 6.10256488 33.33203125 6.57421875 C38.4302913 8.32997313 43.28544895 10.45032527 48.17919922 12.7109375 C73.54355673 24.30205812 96.42118854 27.67944468 124 28 C124 28.99 124 29.98 124 31 C120.48118201 31.94516928 116.95958848 32.87959867 113.4375 33.8125 C112.46619141 34.07353516 111.49488281 34.33457031 110.49414062 34.60351562 C97.25152072 38.09749677 84.61754398 40.56972371 70.875 40.5 C70.20734619 40.49790527 69.53969238 40.49581055 68.85180664 40.49365234 C46.08348553 40.34744122 25.95261831 34.97601369 9.53515625 18.68359375 C5.41393047 14.32106353 1.20487718 9.66500621 -1 4 C-0.625 1.75 -0.625 1.75 0 0 Z " fill="#13151B" transform="translate(499,770)"/>
<path d="M0 0 C3.0625 0.5 3.0625 0.5 5.06640625 2.61328125 C7.20995854 5.71325217 8.62728501 8.70476362 10.0625 12.1875 C10.536875 13.32574219 11.01125 14.46398437 11.5 15.63671875 C12.31724191 17.64379966 13.12365061 19.65456355 13.92089844 21.66967773 C15.90156257 26.67028789 17.96079821 31.62973466 20.078125 36.57421875 C20.88350645 38.46905161 21.68762064 40.36441664 22.49121094 42.26000977 C23.04177712 43.55213819 23.59651548 44.84249631 24.15527344 46.13110352 C24.97468396 48.02401832 25.77770927 49.92320785 26.578125 51.82421875 C27.05540039 52.93885498 27.53267578 54.05349121 28.02441406 55.2019043 C29.17200683 58.84791341 29.39453274 61.69984477 29.0625 65.5 C27.0625 67.5 27.0625 67.5 23.9375 67.625 C22.98875 67.58375 22.04 67.5425 21.0625 67.5 C20.05517601 65.56629769 19.05686712 63.62789694 18.0625 61.6875 C17.2271875 60.06908203 17.2271875 60.06908203 16.375 58.41796875 C15.0625 55.5 15.0625 55.5 15.0625 52.5 C5.1625 52.5 -4.7375 52.5 -14.9375 52.5 C-15.9275 56.13 -16.9175 59.76 -17.9375 63.5 C-21.9375 67.5 -21.9375 67.5 -24.5625 67.875 C-26.9375 67.5 -26.9375 67.5 -28.9375 65.5 C-29.59583994 60.8916204 -28.38590549 58.10432927 -26.2109375 54.09375 C-24.54156904 50.69356394 -23.24289808 47.17591288 -21.9375 43.625 C-21.67831787 42.9222998 -21.41913574 42.21959961 -21.15209961 41.49560547 C-20.64418528 40.11796604 -20.13660645 38.74020287 -19.62939453 37.36230469 C-17.01243404 30.31848865 -14.07705844 23.39772329 -11.1640625 16.47265625 C-9.67486793 12.86349361 -8.28801735 9.21887198 -6.9296875 5.55859375 C-5.22804112 2.02801248 -3.89608846 0.66316399 0 0 Z " fill="#F1F2F2" transform="translate(483.9375,337.5)"/>
<path d="M0 0 C6.48305061 3.61554746 12.45321569 7.13656544 14.83984375 14.67578125 C15.31101771 17.13037322 15.41885053 19.4384704 15.4375 21.9375 C15.45167969 22.80632812 15.46585938 23.67515625 15.48046875 24.5703125 C15.25 26.8125 15.25 26.8125 13.25 28.8125 C10.66896694 28.98752995 8.19691837 29.04412279 5.6171875 29.0078125 C4.48943405 29.00356766 4.48943405 29.00356766 3.33889771 28.99923706 C0.93410422 28.98802874 -1.47031881 28.96292352 -3.875 28.9375 C-5.50390088 28.92747102 -7.13280758 28.91834503 -8.76171875 28.91015625 C-12.75795556 28.88808735 -16.75391494 28.85355351 -20.75 28.8125 C-18.18330037 35.51791864 -18.18330037 35.51791864 -12.75 39.8125 C-5.89803615 40.74589446 -0.8828955 39.75628984 5.25 36.8125 C8.0625 36.5 8.0625 36.5 10.25 36.8125 C12.25 38.8125 12.25 38.8125 12.75 41.125 C12.13248936 44.44411971 10.64814105 45.63878088 8.05078125 47.69921875 C0.55984657 52.33027381 -9.96950919 52.14386669 -18.4296875 50.1953125 C-24.85719135 47.36921158 -28.79609505 41.3485909 -31.625 35.125 C-33.87467804 28.29513911 -34.16556457 19.94693757 -31.0625 13.375 C-23.92700627 1.42367835 -13.88634334 -4.39734206 0 0 Z " fill="#F4F4F3" transform="translate(645.75,252.1875)"/>
<path d="M0 0 C5.82701568 3.31435959 9.86532954 7.7735936 11.8984375 14.19921875 C12.64256734 17.87927904 12.9222448 21.60518315 12.328125 25.32421875 C10.328125 27.32421875 10.328125 27.32421875 6.97998047 27.55126953 C5.55171867 27.5509525 4.12343288 27.53963236 2.6953125 27.51953125 C1.56755905 27.51528641 1.56755905 27.51528641 0.41702271 27.51095581 C-1.98777078 27.49974749 -4.39219381 27.47464227 -6.796875 27.44921875 C-8.42577588 27.43918977 -10.05468258 27.43006378 -11.68359375 27.421875 C-15.67983056 27.3998061 -19.67578994 27.36527226 -23.671875 27.32421875 C-20.95850399 33.91940987 -20.95850399 33.91940987 -15.671875 38.32421875 C-8.99698537 39.27246212 -3.5244924 38.75014113 2.328125 35.32421875 C5.078125 35.01171875 5.078125 35.01171875 7.328125 35.32421875 C9.328125 37.32421875 9.328125 37.32421875 9.703125 39.69921875 C9.328125 42.32421875 9.328125 42.32421875 7.828125 44.44921875 C-0.07649044 50.37768033 -9.21102425 50.32110677 -18.671875 49.32421875 C-25.65396456 47.23828328 -30.08682633 42.53046695 -33.671875 36.32421875 C-37.05213779 29.4363545 -36.94811131 20.13305318 -34.546875 12.88671875 C-31.46187108 6.20254359 -26.63211487 1.51652184 -20.08984375 -1.79296875 C-13.16511218 -4.32122293 -6.57441221 -2.94608094 0 0 Z " fill="#F3F4F4" transform="translate(668.671875,355.67578125)"/>
<path d="M0 0 C1 1 1 1 1.1875 4.375 C1 8 1 8 -1 11 C-8.75 10.125 -8.75 10.125 -11 9 C-18.49651419 8.31134384 -25.31367813 7.86040473 -31.515625 12.578125 C-36.93595444 17.77023004 -37.04377536 23.7468006 -37.25 30.875 C-37.17682502 36.78022061 -36.69161393 41.97580159 -32.640625 46.52734375 C-27.99293424 50.65995538 -23.58174125 52.28418215 -17.4375 52.25 C-16.04337891 52.25773437 -16.04337891 52.25773437 -14.62109375 52.265625 C-11.90819375 51.99069624 -10.37521446 51.26645253 -8 50 C-1.87641357 49.4628433 -1.87641357 49.4628433 0.9375 51.1875 C2.40319823 53.68780874 2.49852135 55.15130656 2 58 C-1.87326277 62.37847096 -8.60229501 63.80654214 -14.1953125 64.2578125 C-24.78076206 64.42973395 -32.70928559 62.93712839 -41 56 C-43.35997745 53.51443617 -45.21418253 50.92027294 -47 48 C-47.41378906 47.36835938 -47.82757812 46.73671875 -48.25390625 46.0859375 C-52.67943343 38.09840063 -52.14631833 27.7695492 -50.41015625 19.03125 C-47.30837059 9.99747793 -40.45978881 3.00115084 -32.25 -1.625 C-21.3031358 -6.50877211 -10.82063049 -4.23637892 0 0 Z " fill="#F2F2F2" transform="translate(612,444)"/>
<path d="M0 0 C7.01560406 7.21089924 6.44579374 15.79811015 6.34570312 25.21240234 C6.32414313 27.6334914 6.34562499 30.05165432 6.37109375 32.47265625 C6.36845249 34.01823569 6.36333168 35.56381331 6.35546875 37.109375 C6.36356567 37.8292157 6.3716626 38.5490564 6.38000488 39.29071045 C6.31585428 42.72297254 6.05938223 44.56688434 3.95117188 47.32910156 C1.82421875 48.875 1.82421875 48.875 -0.73828125 49.375 C-3.17578125 48.875 -3.17578125 48.875 -4.80493164 47.296875 C-6.68520712 43.97499918 -6.54474327 41.42990791 -6.546875 37.625 C-6.56425252 36.19791421 -6.58183695 34.77083093 -6.59960938 33.34375 C-6.60968972 31.10542249 -6.61327536 28.86725555 -6.61157227 26.62890625 C-6.61514507 24.46045467 -6.64248839 22.29323247 -6.671875 20.125 C-6.67372803 18.83078125 -6.67558105 17.5365625 -6.67749023 16.203125 C-7.25473683 12.34764947 -8.08233416 11.16810655 -11.17578125 8.875 C-13.84290797 8.20912939 -13.84290797 8.20912939 -16.67578125 8.3125 C-17.61421875 8.29058594 -18.55265625 8.26867187 -19.51953125 8.24609375 C-23.25551481 9.1306428 -24.12971682 10.67000783 -26.17578125 13.875 C-26.76655962 17.39783939 -26.76655962 17.39783939 -26.6796875 21.2578125 C-26.68910873 21.95389618 -26.69852997 22.64997986 -26.70823669 23.36715698 C-26.73678568 25.57840813 -26.73996789 27.78857981 -26.73828125 30 C-26.74188958 32.21840249 -26.7513994 34.43602689 -26.77903748 36.65426636 C-26.80351276 38.66147299 -26.80575915 40.66891399 -26.80688477 42.67626953 C-27.17578125 45.875 -27.17578125 45.875 -28.47631836 47.82763672 C-30.17578125 48.875 -30.17578125 48.875 -33.73828125 48.75 C-37.17578125 47.875 -37.17578125 47.875 -39.17578125 44.875 C-39.43647766 42.86401367 -39.43647766 42.86401367 -39.45043945 40.54296875 C-39.45997147 39.67196533 -39.46950348 38.80096191 -39.47932434 37.90356445 C-39.47841293 36.96601318 -39.47750153 36.02846191 -39.4765625 35.0625 C-39.48084763 34.09723389 -39.48513275 33.13196777 -39.48954773 32.13745117 C-39.49529098 30.09652491 -39.49579133 28.05557817 -39.49145508 26.01464844 C-39.4882934 22.88701612 -39.51176045 19.76032795 -39.53710938 16.6328125 C-39.53938214 14.65104286 -39.54008597 12.66927068 -39.5390625 10.6875 C-39.54827225 9.74994873 -39.55748199 8.81239746 -39.56697083 7.84643555 C-39.56074203 6.97543213 -39.55451324 6.10442871 -39.5480957 5.20703125 C-39.54903984 4.05811401 -39.54903984 4.05811401 -39.55000305 2.88598633 C-39.06955347 0.30415508 -38.29016645 -0.59691118 -36.17578125 -2.125 C-32.67578125 -2.0625 -32.67578125 -2.0625 -29.17578125 -1.125 C-27.23828125 0.9375 -27.23828125 0.9375 -26.17578125 2.875 C-25.716875 2.52566406 -25.25796875 2.17632812 -24.78515625 1.81640625 C-24.1715625 1.36136719 -23.55796875 0.90632813 -22.92578125 0.4375 C-22.3225 -0.01496094 -21.71921875 -0.46742188 -21.09765625 -0.93359375 C-14.36338316 -5.10829557 -6.46080025 -3.90086053 0 0 Z " fill="#EDEEEE" transform="translate(559.17578125,356.125)"/>
<path d="M0 0 C4.73963177 2.14708883 7.21570938 4.64006489 9.703125 9.31640625 C10.92192512 12.97280661 10.8653729 16.35239961 10.87109375 20.16015625 C10.87608635 21.30840881 10.87608635 21.30840881 10.88117981 22.4798584 C10.88623852 24.09708048 10.88858846 25.71431298 10.88842773 27.33154297 C10.89061681 29.80714032 10.90879033 32.28229382 10.92773438 34.7578125 C10.93066798 36.32942556 10.932653 37.90104073 10.93359375 39.47265625 C10.94077927 40.21334351 10.94796478 40.95403076 10.95536804 41.71716309 C10.93866346 45.46795638 10.83807643 47.1139791 8.703125 50.31640625 C6.828125 50.71484375 6.828125 50.71484375 4.703125 50.69140625 C4.001875 50.69914062 3.300625 50.706875 2.578125 50.71484375 C0.703125 50.31640625 0.703125 50.31640625 -1.296875 47.31640625 C-1.47735462 44.82483081 -1.54999703 42.43597835 -1.53515625 39.9453125 C-1.5505734 38.46939182 -1.56687685 36.99348018 -1.58398438 35.51757812 C-1.60044826 33.19567911 -1.60936142 30.87444292 -1.60229492 28.55249023 C-1.59967442 26.30767105 -1.62778995 24.06486294 -1.66015625 21.8203125 C-1.64994949 21.12853409 -1.63974274 20.43675568 -1.62922668 19.72401428 C-1.70474627 15.99777587 -2.03614403 14.58085474 -4.6940918 11.88500977 C-7.3291378 10.29696262 -8.75564066 9.72353196 -11.796875 9.69140625 C-12.5290625 9.65789062 -13.26125 9.624375 -14.015625 9.58984375 C-17.5312644 10.70955082 -19.4425827 13.25200863 -21.296875 16.31640625 C-22.02030408 19.92582281 -22.02030408 19.92582281 -21.8984375 23.796875 C-21.90644379 24.49154373 -21.91445007 25.18621246 -21.92269897 25.90193176 C-21.94563478 28.10319621 -21.93634938 30.3025946 -21.921875 32.50390625 C-21.91802485 34.71557656 -21.92145427 36.92643686 -21.94247437 39.13801575 C-21.96007503 41.13644802 -21.95260693 43.13505434 -21.94384766 45.13354492 C-22.296875 48.31640625 -22.296875 48.31640625 -23.66162109 50.2355957 C-26.01449572 51.79071304 -27.53807357 51.73022646 -30.296875 51.31640625 C-32.39289481 49.72451701 -33.20328551 48.84000751 -33.6710968 46.22276306 C-33.67046738 45.41827225 -33.66983795 44.61378143 -33.66918945 43.78491211 C-33.67541824 42.8706395 -33.68164703 41.95636688 -33.68806458 41.01438904 C-33.67424995 39.53773521 -33.67424995 39.53773521 -33.66015625 38.03125 C-33.66065475 37.01922012 -33.66115326 36.00719025 -33.66166687 34.9644928 C-33.65932612 32.82518551 -33.64959761 30.68587548 -33.63305664 28.54663086 C-33.60944227 25.2632601 -33.61249848 21.98069983 -33.61914062 18.69726562 C-33.61356475 16.62108889 -33.60645545 14.54491558 -33.59765625 12.46875 C-33.59856766 11.48228989 -33.59947906 10.49582977 -33.60041809 9.47947693 C-33.59088608 8.56835648 -33.58135406 7.65723602 -33.5715332 6.71850586 C-33.56692581 5.91481064 -33.56231842 5.11111542 -33.55757141 4.2830658 C-33.296875 2.31640625 -33.296875 2.31640625 -31.296875 0.31640625 C-26.08843173 -0.23768346 -26.08843173 -0.23768346 -23.421875 1.62890625 C-22.296875 3.31640625 -22.296875 3.31640625 -22.296875 6.31640625 C-21.46542969 5.68412109 -21.46542969 5.68412109 -20.6171875 5.0390625 C-19.53050781 4.21728516 -19.53050781 4.21728516 -18.421875 3.37890625 C-17.70257812 2.83363281 -16.98328125 2.28835937 -16.2421875 1.7265625 C-11.43709875 -1.7566444 -5.60739018 -1.66886612 0 0 Z " fill="#F3F3F2" transform="translate(592.296875,251.68359375)"/>
<path d="M0 0 C3.4375 0.875 3.4375 0.875 5.4375 3.875 C5.85030081 8.35232781 5.80909808 12.83969921 5.80810547 17.33374023 C5.8124512 19.537749 5.84869497 21.73970857 5.88671875 23.94335938 C5.96067472 33.15244887 5.22631086 39.38825029 -0.9375 46.6875 C-7.30979636 51.99774697 -12.83410356 52.46761837 -20.91796875 52.28515625 C-25.86644308 51.72825399 -29.08998016 50.45519488 -32.5625 46.875 C-34.29240038 44.58066082 -35.3318602 42.52560881 -36.5625 39.875 C-36.92053711 39.13080811 -37.27857422 38.38661621 -37.64746094 37.61987305 C-38.80969972 34.13346678 -38.82175853 31.13071192 -38.828125 27.45703125 C-38.83003845 26.7585759 -38.8319519 26.06012054 -38.83392334 25.34049988 C-38.83527846 23.8722599 -38.83162923 22.40400767 -38.82324219 20.93579102 C-38.81248393 18.68413661 -38.82318455 16.4332712 -38.8359375 14.18164062 C-38.83461673 12.7526024 -38.83205606 11.32356467 -38.828125 9.89453125 C-38.82586914 8.59620361 -38.82361328 7.29787598 -38.82128906 5.96020508 C-38.5625 2.875 -38.5625 2.875 -36.5625 0.875 C-30.44331311 0.31871028 -30.44331311 0.31871028 -27.86083984 1.94970703 C-25.86872438 4.90379176 -26.21118118 7.46547155 -26.2265625 10.9921875 C-26.21404817 12.41797329 -26.20101096 13.84375456 -26.1875 15.26953125 C-26.1835735 17.51009147 -26.18750134 19.75020514 -26.20214844 21.99072266 C-26.21074524 24.15854891 -26.18899475 26.32452405 -26.1640625 28.4921875 C-26.16744629 29.78753418 -26.17083008 31.08288086 -26.17431641 32.41748047 C-25.4078041 36.7492232 -24.01007648 38.22239115 -20.5625 40.875 C-16.36718804 41.39021375 -13.08115971 41.35109387 -9.5625 38.875 C-7.16172007 35.27383011 -7.26668173 32.62928836 -7.25390625 28.46875 C-7.22875409 26.98827718 -7.20335596 25.50780852 -7.17773438 24.02734375 C-7.14895297 21.69678758 -7.12493012 19.36630343 -7.10620117 17.03564453 C-7.08457175 14.78380755 -7.04514569 12.53280061 -7.00390625 10.28125 C-7.00379044 9.5843103 -7.00367462 8.88737061 -7.0035553 8.16931152 C-6.94503515 5.31421765 -6.85662544 3.31918719 -5.25756836 0.90429688 C-3.5625 -0.125 -3.5625 -0.125 0 0 Z " fill="#F3F3F3" transform="translate(685.5625,456.125)"/>
<path d="M0 0 C2.83800896 2.83800896 2.25440896 4.76096189 2.2734375 8.73046875 C2.29374406 10.10482559 2.31459515 11.47917448 2.3359375 12.85351562 C2.35843812 15.01479788 2.37496801 17.17576464 2.38085938 19.3371582 C2.24417322 30.36194442 2.24417322 30.36194442 7 40 C13.67337635 40.6602201 13.67337635 40.6602201 19.5625 38.125 C22.20696582 34.21578965 22.16005731 31.61192872 22.24609375 26.875 C22.27902088 25.43228534 22.31223271 23.98957716 22.34570312 22.546875 C22.39320146 20.26892387 22.43765466 17.99100111 22.47680664 15.71289062 C22.51643193 13.51665323 22.5679858 11.32094683 22.62109375 9.125 C22.65867798 7.14886719 22.65867798 7.14886719 22.69702148 5.1328125 C23 2 23 2 25 0 C29.05261287 -0.34490322 30.54754176 -0.30163882 34 2 C34.34228483 4.66176789 34.49201164 7.08565553 34.50390625 9.75390625 C34.51389145 10.52878891 34.52387665 11.30367157 34.53416443 12.10203552 C34.54937297 13.74708719 34.55638937 15.39223162 34.5559082 17.03735352 C34.56241455 19.52976465 34.61669843 22.01807025 34.67382812 24.50976562 C34.82689207 38.95203975 34.82689207 38.95203975 29.57348633 45.42919922 C24.34264227 50.65111554 20.33056956 51.38469965 13.0625 51.5 C7.05419217 51.42525616 1.70672922 51.03433933 -3 47 C-9.50335158 39.12752177 -9.34474166 30.75862961 -9.31567383 21.0402832 C-9.31249397 18.80826856 -9.33608036 16.57755618 -9.36132812 14.34570312 C-9.36359949 12.92448083 -9.36430537 11.50325499 -9.36328125 10.08203125 C-9.36626221 8.79530518 -9.36924316 7.5085791 -9.37231445 6.18286133 C-9 3 -9 3 -7.66870117 1.0769043 C-5.08988817 -0.58734503 -2.98388812 -0.31743491 0 0 Z " fill="#F4F4F3" transform="translate(444,252)"/>
<path d="M0 0 C3.71928622 1.89226843 6.03402247 3.49387324 8.5625 6.8125 C9 9.5 9 9.5 8.5625 11.8125 C6.5625 13.8125 6.5625 13.8125 4.25 14.1875 C0.73943527 13.69765376 -0.79699009 12.1055744 -3.4375 9.8125 C-7.36046433 8.50484522 -10.29752433 8.6153583 -14.4375 8.8125 C-16.72478734 10.65133881 -16.72478734 10.65133881 -16.5625 13.4375 C-16.52125 14.22125 -16.48 15.005 -16.4375 15.8125 C-13.06892142 17.3009417 -9.72432123 18.71008899 -6.25390625 19.94921875 C6.40903979 24.50557958 6.40903979 24.50557958 9.5625 30.8125 C10.04160983 35.68999516 10.32763811 40.21266578 8.1875 44.6875 C2.07097628 49.63897158 -4.00430043 52.63221837 -11.984375 52.16796875 C-19.00091008 51.15124153 -23.75163975 49.35033484 -28.4375 43.8125 C-29.0975 43.1525 -29.7575 42.4925 -30.4375 41.8125 C-30.10778521 38.51535207 -29.8148161 37.1898161 -27.4375 34.8125 C-25.1875 34.375 -25.1875 34.375 -22.4375 34.8125 C-20.38022868 36.4079349 -18.37875344 38.07776288 -16.4375 39.8125 C-12.61311603 42.48956878 -8.96291907 42.09982819 -4.4375 41.8125 C-1.12289295 40.10357501 -1.12289295 40.10357501 -0.75 36.6875 C-0.646875 35.73875 -0.54375 34.79 -0.4375 33.8125 C-3.4293093 32.80632604 -6.42239185 31.81718195 -9.4375 30.8828125 C-22.82145817 26.66547151 -22.82145817 26.66547151 -26.8125 20.5 C-28.67904788 16.82964535 -29.03758054 13.93805371 -28.4375 9.8125 C-22.95328092 -1.61295641 -11.37579309 -3.72024992 0 0 Z " fill="#F1F1F0" transform="translate(743.4375,354.1875)"/>
<path d="M0 0 C2.0625 2.1875 2.0625 2.1875 2.5 5.3125 C2.0625 8.1875 2.0625 8.1875 0.0625 10.1875 C-3.33936321 9.9985076 -4.90040487 9.21596835 -7.625 7.125 C-12.05991326 4.53099413 -15.89878886 4.60866501 -20.9375 5.1875 C-22.29368499 6.31284105 -22.29368499 6.31284105 -22 9.25 C-21.979375 10.219375 -21.95875 11.18875 -21.9375 12.1875 C-17.12193579 14.73691634 -12.39523805 16.75581982 -7.25 18.5625 C-1.80044198 20.64243572 1.30399331 21.97698737 4.0625 27.1875 C5.11530842 32.49407981 4.04537753 36.66175479 1.0625 41.1875 C-5.51947311 47.42305347 -12.39068688 47.79228963 -21.03125 47.57421875 C-27.3569953 46.94796997 -30.58538494 44.53961506 -34.9375 40.1875 C-36.20126787 37.65996427 -36.30458891 35.97737569 -35.9375 33.1875 C-33.9375 31.1875 -33.9375 31.1875 -31.25 30.6875 C-27.58637262 31.24050036 -27.24362209 31.66721695 -24.8125 34.1875 C-21.50640648 37.35211654 -19.09611647 37.61962842 -14.5625 37.625 C-10.93237064 37.74654944 -10.93237064 37.74654944 -7.9375 36.1875 C-7.89669217 34.18791636 -7.89495644 32.18704746 -7.9375 30.1875 C-12.78957489 27.93517881 -17.59385976 25.95739332 -22.6875 24.3125 C-28.45188004 22.27801293 -31.18266582 19.69716837 -33.9375 14.1875 C-34.50781437 9.51279208 -34.37591751 6.06433502 -32.25 1.8125 C-23.53590253 -8.07917821 -10.24949809 -6.3241584 0 0 Z " fill="#F2F2F1" transform="translate(522.9375,255.8125)"/>
<path d="M0 0 C3.16653332 1.72578657 4.258248 2.606122 6.3125 5.6875 C6.5625 8.25 6.5625 8.25 6.3125 10.6875 C4.3125 12.6875 4.3125 12.6875 2 13.0625 C-1.51293413 12.57232315 -3.07695171 11.01582685 -5.6875 8.6875 C-8.04096396 7.51076802 -9.5681033 7.52126134 -12.1875 7.5 C-12.9815625 7.48582031 -13.775625 7.47164063 -14.59375 7.45703125 C-16.90783317 7.49083697 -16.90783317 7.49083697 -18.6875 9.6875 C-18.53482781 12.66460773 -18.24275884 14.17152834 -16.03125 16.2265625 C-13.19947252 17.9917038 -10.53006437 18.75123252 -7.3125 19.625 C-0.94118604 21.49849524 3.52420725 23.00506088 7.3125 28.6875 C7.94745137 33.31930315 8.36211333 38.36303442 6.40234375 42.703125 C3.65454202 46.20193364 0.34756303 48.01256818 -3.6875 49.6875 C-6.41830128 49.99871041 -8.84334386 50.16489297 -11.5625 50.125 C-12.26922852 50.11887695 -12.97595703 50.11275391 -13.70410156 50.10644531 C-20.78714544 49.89398668 -24.58384617 48.01524037 -30.1875 43.8125 C-32.20645689 40.95231107 -32.13410297 39.11145612 -31.6875 35.6875 C-29.6875 33.6875 -29.6875 33.6875 -27.28515625 33.375 C-24.18262227 33.74823717 -23.33775944 34.54899423 -21.125 36.6875 C-16.62320005 40.35275858 -12.76861625 40.22902295 -7.12890625 39.99609375 C-4.74367022 39.94795426 -4.74367022 39.94795426 -3.6875 38.6875 C-3.64669217 36.68791636 -3.64495644 34.68704746 -3.6875 32.6875 C-8.58073599 30.67504177 -13.41930523 28.73828433 -18.5 27.25 C-23.85754824 25.51778917 -26.60659716 22.30885426 -29.6875 17.6875 C-30.34656374 12.73685845 -30.49460751 8.20486213 -28.125 3.75 C-19.62129107 -3.44544602 -10.36188679 -4.95568499 0 0 Z " fill="#F2F2F0" transform="translate(699.6875,253.3125)"/>
<path d="M0 0 C3 1.8125 3 1.8125 5 4 C5.375 7.1875 5.375 7.1875 5 10 C4 11 4 11 0.8125 11.3125 C-3 11 -3 11 -5.875 9 C-9.88665644 6.43253988 -13.32857739 6.19651531 -18 7 C-18.66 7.66 -19.32 8.32 -20 9 C-20.06546898 11.51047485 -20.06546898 11.51047485 -19 14 C-15.53390087 16.43864832 -12.1008122 17.72652607 -8.0625 18.9375 C-2.01751331 20.88557689 2.3776137 22.56642055 6 28 C6.69162415 33.12284402 6.56266983 37.65448519 4.5625 42.4375 C-0.90998984 47.90998984 -6.40751272 49.25385893 -14.0625 49.5 C-21.43413502 49.27734004 -25.72730705 47.45451971 -31.5 43.125 C-33.51895689 40.26481107 -33.44660297 38.42395612 -33 35 C-31 33 -31 33 -28.3125 32.5 C-24.64887262 33.05300036 -24.30612209 33.47971695 -21.875 36 C-18.56890648 39.16461654 -16.15861647 39.43212842 -11.625 39.4375 C-7.99487064 39.55904944 -7.99487064 39.55904944 -5 38 C-4.95919217 36.00041636 -4.95745644 33.99954746 -5 32 C-6.79125849 31.24902565 -8.58303436 30.49928538 -10.375 29.75 C-11.46554687 29.28980469 -12.55609375 28.82960938 -13.6796875 28.35546875 C-15.7286765 27.51899912 -17.79452978 26.72116096 -19.8828125 25.98828125 C-23.89196698 24.57011765 -26.54955973 23.4397155 -29.625 20.4375 C-31.57904206 15.55239484 -31.76981744 11.19031553 -31 6 C-24.79044542 -5.67396261 -10.4756779 -5.14594704 0 0 Z " fill="#F3F2F1" transform="translate(747,254)"/>
<path d="M0 0 C1.6622467 1.13793945 1.6622467 1.13793945 3 3 C3.38768005 5.77026367 3.38768005 5.77026367 3.40405273 9.16796875 C3.41673691 10.43938721 3.42942108 11.71080566 3.44248962 13.02075195 C3.44043833 14.40966962 3.43745042 15.79858617 3.43359375 17.1875 C3.4381542 18.61092377 3.44345936 20.03434533 3.44947815 21.45776367 C3.45841323 24.44035795 3.45598145 27.42268452 3.44604492 30.40527344 C3.43454796 34.22898051 3.45477442 38.0517651 3.48396206 41.87535095 C3.5022999 44.8144722 3.50203666 47.75337131 3.49632454 50.6925354 C3.49617106 52.10235896 3.50223747 53.51219733 3.51461601 54.92196655 C3.52947743 56.89193676 3.5162441 58.86205861 3.50170898 60.83203125 C3.50145973 62.51389526 3.50145973 62.51389526 3.50120544 64.22973633 C3 67 3 67 1.12879944 68.86206055 C-1.51056747 70.27292138 -3.04748061 70.45423375 -6 70 C-7.62808228 68.86206055 -7.62808228 68.86206055 -9 67 C-9.38095093 64.22973633 -9.38095093 64.22973633 -9.38818359 60.83203125 C-9.39764008 59.56061279 -9.40709656 58.28919434 -9.4168396 56.97924805 C-9.41146991 55.59032887 -9.40531696 54.20141252 -9.3984375 52.8125 C-9.40045839 51.38907726 -9.40336995 49.96565553 -9.40713501 48.54223633 C-9.41155771 45.55963276 -9.40512935 42.57729879 -9.39111328 39.59472656 C-9.37402103 35.77114909 -9.38386255 31.94820334 -9.40183067 28.12464905 C-9.41267019 25.18553913 -9.40922149 22.24657903 -9.4014473 19.3074646 C-9.39944573 17.89765346 -9.40190306 16.48782872 -9.40888596 15.07803345 C-9.41650223 13.10801452 -9.40283579 11.13794791 -9.38818359 9.16796875 C-9.38579681 8.04672607 -9.38341003 6.9254834 -9.38095093 5.77026367 C-9 3 -9 3 -7.66323853 1.13793945 C-5.06403522 -0.6403599 -3.05665414 -0.38208177 0 0 Z " fill="#EBECEC" transform="translate(701,335)"/>
<path d="M0 0 C2.76384075 2.76384075 2.25931028 4.38307569 2.2746582 8.25390625 C2.28419022 9.56866943 2.29372223 10.88343262 2.30354309 12.23803711 C2.3032817 13.67952501 2.30234482 15.12101292 2.30078125 16.5625 C2.30466639 18.03458783 2.30900068 19.50667453 2.31376648 20.97875977 C2.32123413 24.0656294 2.32093327 27.15238468 2.31567383 30.23925781 C2.30987465 34.200809 2.32681788 38.16189335 2.3500185 42.12336731 C2.36472795 45.16364289 2.36563145 48.20380526 2.36250877 51.24411011 C2.36302327 52.70499599 2.36828507 54.165888 2.37832069 55.6267395 C2.39061415 57.66648819 2.38197798 59.70633091 2.37231445 61.74609375 C2.37294388 62.90810303 2.3735733 64.0701123 2.3742218 65.26733398 C2.25072861 66.16911377 2.12723541 67.07089355 2 68 C-1.23253796 70.15502531 -2.25150923 70.46856135 -6 70 C-7.63198853 68.8659668 -7.63198853 68.8659668 -9 67 C-9.38095093 64.22973633 -9.38095093 64.22973633 -9.38818359 60.83203125 C-9.39764008 59.56061279 -9.40709656 58.28919434 -9.4168396 56.97924805 C-9.41146991 55.59032887 -9.40531696 54.20141252 -9.3984375 52.8125 C-9.40045839 51.38907726 -9.40336995 49.96565553 -9.40713501 48.54223633 C-9.41155771 45.55963276 -9.40512935 42.57729879 -9.39111328 39.59472656 C-9.37402103 35.77114909 -9.38386255 31.94820334 -9.40183067 28.12464905 C-9.41267019 25.18553913 -9.40922149 22.24657903 -9.4014473 19.3074646 C-9.39944573 17.89765346 -9.40190306 16.48782872 -9.40888596 15.07803345 C-9.41650223 13.10801452 -9.40283579 11.13794791 -9.38818359 9.16796875 C-9.38579681 8.04672607 -9.38341003 6.9254834 -9.38095093 5.77026367 C-9 3 -9 3 -7.66714478 1.1340332 C-5.10148731 -0.61119061 -3.0121002 -0.32043619 0 0 Z " fill="#F7F8F8" transform="translate(632,437)"/>
<path d="M0 0 C3.78827039 1.2627568 5.60044481 2.5899302 8.375 5.4375 C10.75873041 10.66337052 10.86504852 15.35130713 10 21 C8.47243718 24.84003934 6.68038782 27.91437631 3.16796875 30.18359375 C-1.09847414 31.79023621 -5.53294998 31.65711434 -10 31 C-13 28.75 -13 28.75 -15 26 C-15.52722656 25.41476562 -16.05445313 24.82953125 -16.59765625 24.2265625 C-19.42345696 19.73991513 -18.57698587 14.0977653 -18 9 C-14.87644222 0.47829364 -8.12879101 -0.9260648 0 0 Z " fill="#131519" transform="translate(604,364)"/>
<path d="M0 0 C3.92379066 1.96189533 6.4083725 4.9388518 8 9 C8.64162581 14.70748536 9.06422634 20.89221374 6.375 26.125 C2.81759526 30.43133206 -0.03543054 31.79320321 -5.5625 32.375 C-10.73426734 31.8108072 -13.49328163 29.87707019 -16.8125 26 C-19.97210301 21.29548069 -19.73156554 16.45860439 -19 11 C-18.09440684 7.24628177 -16.46079987 4.56159984 -14 1.5625 C-9.39686505 -0.83496612 -5.07648075 -0.87089186 0 0 Z " fill="#14161B" transform="translate(733,466)"/>
<path d="M0 0 C2.98502035 0.44775305 3.67032869 1.03034971 5.5 3.375 C5.88095093 5.4239502 5.88095093 5.4239502 5.88818359 7.79882812 C5.89764008 8.68985229 5.90709656 9.58087646 5.9168396 10.49890137 C5.91076691 11.45832642 5.90469421 12.41775146 5.8984375 13.40625 C5.90274277 14.88744324 5.90274277 14.88744324 5.90713501 16.39855957 C5.90917675 18.4865781 5.90363925 20.5746157 5.89111328 22.66259766 C5.8750615 25.86273883 5.89095859 29.06161696 5.91015625 32.26171875 C5.90817384 34.28906529 5.90433021 36.31641105 5.8984375 38.34375 C5.90451019 39.30317505 5.91058289 40.2626001 5.9168396 41.25109863 C5.90738312 42.1421228 5.89792664 43.03314697 5.88818359 43.95117188 C5.88579681 44.73488159 5.88341003 45.51859131 5.88095093 46.3260498 C5.40100177 48.90746344 4.56539396 49.79690106 2.5 51.375 C0 51.75 0 51.75 -2.5 51.375 C-4.56539396 49.79690106 -5.40100177 48.90746344 -5.88095093 46.3260498 C-5.88333771 45.54234009 -5.88572449 44.75863037 -5.88818359 43.95117188 C-5.89764008 43.06014771 -5.90709656 42.16912354 -5.9168396 41.25109863 C-5.90773056 39.81196106 -5.90773056 39.81196106 -5.8984375 38.34375 C-5.90130768 37.35628784 -5.90417786 36.36882568 -5.90713501 35.35144043 C-5.90917675 33.2634219 -5.90363925 31.1753843 -5.89111328 29.08740234 C-5.8750615 25.88726117 -5.89095859 22.68838304 -5.91015625 19.48828125 C-5.90817384 17.46093471 -5.90433021 15.43358895 -5.8984375 13.40625 C-5.90451019 12.44682495 -5.91058289 11.4873999 -5.9168396 10.49890137 C-5.90738312 9.6078772 -5.89792664 8.71685303 -5.88818359 7.79882812 C-5.88579681 7.01511841 -5.88341003 6.23140869 -5.88095093 5.4239502 C-5.21964346 1.8670982 -3.49393699 0.52409055 0 0 Z " fill="#FAFAF9" transform="translate(541.5,251.625)"/>
<path d="M0 0 C3.37635286 -0.13541522 6.74723976 -0.23431111 10.125 -0.3125 C11.07632812 -0.35439453 12.02765625 -0.39628906 13.0078125 -0.43945312 C20.96894694 -0.57766726 20.96894694 -0.57766726 24.63671875 2.26953125 C27.80509381 5.93018276 27.80509381 5.93018276 27.6875 9 C27.4354626 12.41866111 26.9245342 13.09333928 24.625 15.9375 C21.20342612 18.62587948 19.68561266 19.12459249 15.4296875 19.09765625 C14.53378906 19.09443359 13.63789063 19.09121094 12.71484375 19.08789062 C11.77769531 19.07951172 10.84054687 19.07113281 9.875 19.0625 C8.93011719 19.05798828 7.98523438 19.05347656 7.01171875 19.04882812 C4.6744523 19.03702375 2.33721831 19.01908799 0 19 C0 12.73 0 6.46 0 0 Z " fill="#181A1F" transform="translate(386,273)"/>
<path d="M0 0 C3.08427046 -0.10800947 6.16475747 -0.18731002 9.25 -0.25 C10.12269531 -0.28351563 10.99539063 -0.31703125 11.89453125 -0.3515625 C18.35408716 -0.45018167 18.35408716 -0.45018167 21.578125 1.796875 C23.66746523 5.03420436 23.53803486 7.233756 23 11 C21.578125 13.203125 21.578125 13.203125 19 15 C15.73620476 15.48956929 12.54074802 15.37638028 9.25 15.25 C8.36183594 15.23195313 7.47367187 15.21390625 6.55859375 15.1953125 C4.37193225 15.14828752 2.18582719 15.07654648 0 15 C0 10.05 0 5.1 0 0 Z " fill="#1B1D21" transform="translate(386,247)"/>
<path d="M0 0 C2.46060467 2.20895192 3.72465216 4.21042098 5 7.25 C5.33515625 8.04148437 5.6703125 8.83296875 6.015625 9.6484375 C6.34046875 10.42445313 6.6653125 11.20046875 7 12 C7.45632813 13.00933594 7.45632813 13.00933594 7.921875 14.0390625 C9.20492036 16.88354986 10 18.84053365 10 22 C4.06 22 -1.88 22 -8 22 C-6.87420428 15.24522565 -6.87420428 15.24522565 -5.625 12.16796875 C-5.23054688 11.18860352 -5.23054688 11.18860352 -4.828125 10.18945312 C-4.55484375 9.52880859 -4.2815625 8.86816406 -4 8.1875 C-3.72671875 7.50751953 -3.4534375 6.82753906 -3.171875 6.12695312 C-1.14553571 1.14553571 -1.14553571 1.14553571 0 0 Z " fill="#222529" transform="translate(483,357)"/>
<path d="M0 0 C2.86404984 1.55179428 5.17061846 3.28828009 7 6 C7 7.65 7 9.3 7 11 C-0.92 11 -8.84 11 -17 11 C-16 5 -16 5 -13.5625 2.6875 C-9.02436013 -0.30103114 -5.38884574 -0.9303219 0 0 Z " fill="#212327" transform="translate(642,261)"/>
<path d="M0 0 C3.1875 1.625 3.1875 1.625 5 4 C5.33 5.98 5.66 7.96 6 10 C-1.92 10 -9.84 10 -18 10 C-17 4 -17 4 -15.1875 1.625 C-10.23141684 -0.90163063 -5.44961827 -0.73867578 0 0 Z " fill="#1E2125" transform="translate(663,364)"/>
<path d="M0 0 C3.47552338 0.34755234 4.83993243 0.67588358 7.125 3.3125 C7.58447423 6.4631804 7.64725401 8.39087528 6.0625 11.1875 C3.05767901 12.93223477 0.51689869 12.62085443 -2.875 12.3125 C-4.875 10.3125 -4.875 10.3125 -5.140625 8.4375 C-5.13546875 7.73625 -5.1303125 7.035 -5.125 6.3125 C-5.13015625 5.61125 -5.1353125 4.91 -5.140625 4.1875 C-4.66177222 0.80736274 -3.20938086 0.34884575 0 0 Z " fill="#E6E5E4" transform="translate(540.875,233.6875)"/>
<path d="M0 0 C-1.2065625 0.9590625 -1.2065625 0.9590625 -2.4375 1.9375 C-4.2750504 3.40603502 -4.2750504 3.40603502 -6 5 C-6.12185143 6.34983748 -6.17766831 7.70574701 -6.20532227 9.06079102 C-6.2352401 10.35201622 -6.2352401 10.35201622 -6.26576233 11.66932678 C-6.29083107 13.07244362 -6.29083107 13.07244362 -6.31640625 14.50390625 C-6.33718735 15.45692123 -6.35796844 16.40993622 -6.37937927 17.39183044 C-6.44498177 20.4486441 -6.50380918 23.50554656 -6.5625 26.5625 C-6.60567506 28.62956663 -6.64928901 30.69662414 -6.69335938 32.76367188 C-6.80067401 37.84235595 -6.90191091 42.9211297 -7 48 C-7.33 48 -7.66 48 -8 48 C-8.07597749 41.64631803 -8.12856897 35.29275291 -8.16479492 28.9387207 C-8.17989444 26.77656679 -8.20037571 24.61444357 -8.22631836 22.45239258 C-8.26265017 19.347091 -8.27971462 16.24219386 -8.29296875 13.13671875 C-8.30845261 12.16788254 -8.32393646 11.19904633 -8.33988953 10.20085144 C-8.34011612 9.3001442 -8.34034271 8.39943695 -8.34057617 7.47143555 C-8.34723801 6.67867722 -8.35389984 5.88591888 -8.36076355 5.06913757 C-7.50996593 0.18943916 -4.44680599 -0.36055184 0 0 Z " fill="#D6D7D6" transform="translate(544,252)"/>
<path d="M0 0 C-4.75 4 -4.75 4 -7 4 C-7 13.57 -7 23.14 -7 33 C-7.33 33 -7.66 33 -8 33 C-8.07419134 28.78250781 -8.1286204 24.56536189 -8.16479492 20.34741211 C-8.17987589 18.91277448 -8.2003438 17.47818292 -8.22631836 16.04370117 C-8.26273437 13.98084141 -8.27973243 11.91859142 -8.29296875 9.85546875 C-8.3086792 8.61434326 -8.32438965 7.37321777 -8.34057617 6.09448242 C-8 3 -8 3 -6.6496582 1.08325195 C-4.38329383 -0.40496156 -2.65029886 -0.2148891 0 0 Z " fill="#B2B3B4" transform="translate(687,456)"/>
<path d="M0 0 C-1.2065625 0.9590625 -1.2065625 0.9590625 -2.4375 1.9375 C-5.71690966 4.57702485 -6.10981682 4.9883514 -6.5625 9.0625 C-6.706875 10.361875 -6.85125 11.66125 -7 13 C-7.33 13 -7.66 13 -8 13 C-8.08121924 11.39667209 -8.13929134 9.79215974 -8.1875 8.1875 C-8.22230469 7.29417969 -8.25710938 6.40085937 -8.29296875 5.48046875 C-8 3 -8 3 -6.65625 1.1875 C-4.39235443 -0.43567041 -2.71692729 -0.2202914 0 0 Z " fill="#D1D1CF" transform="translate(544,252)"/>
<path d="M0 0 C0.66 0.33 1.32 0.66 2 1 C0.88121617 2.17262904 -0.24523051 3.33795138 -1.375 4.5 C-2.00148438 5.1496875 -2.62796875 5.799375 -3.2734375 6.46875 C-5 8 -5 8 -7 8 C-5.50902342 4.2047869 -3.24299151 2.38957269 0 0 Z " fill="#D6D7D8" transform="translate(645,356)"/>
<path d="M0 0 C1.98 0.99 3.96 1.98 6 3 C6 3.66 6 4.32 6 5 C3.03 4.67 0.06 4.34 -3 4 C-2.01 3.67 -1.02 3.34 0 3 C0 2.01 0 1.02 0 0 Z " fill="#3F4143" transform="translate(526,825)"/>
<path d="M0 0 C1.4540625 0.0309375 1.4540625 0.0309375 2.9375 0.0625 C-1.0625 2.0625 -1.0625 2.0625 -5.0625 4.0625 C-5.0625 5.0525 -5.0625 6.0425 -5.0625 7.0625 C-5.7225 6.7325 -6.3825 6.4025 -7.0625 6.0625 C-3.52966102 0.0720339 -3.52966102 0.0720339 0 0 Z " fill="#C4C5C6" transform="translate(620.0625,352.9375)"/>
</svg>
