<svg xmlns="http://www.w3.org/2000/svg" width="340" height="90" viewBox="0 0 340 90">
  <defs>
    <style>
      @import url('https://fonts.googleapis.com/css2?family=Space+Grotesk:wght@500;700&amp;family=DM+Sans:wght@300;400&amp;display=swap');
    </style>
  </defs>

  <!-- Background -->
  <rect width="340" height="90" fill="#1A1025"/>

  <!-- Ala -->
  <g transform="translate(10,6)">
    <path d="M6,72 Q10,42 32,18 Q46,6 60,8 Q50,16 40,26 Q26,42 20,70 Z" fill="#26215C" stroke="#AFA9EC" stroke-width="0.7" opacity="0.55"/>
    <path d="M20,70 Q22,50 34,32" fill="none" stroke="#3C3489" stroke-width="2.2" stroke-linecap="round"/>
    <path d="M26,63 Q30,44 42,26" fill="none" stroke="#534AB7" stroke-width="2" stroke-linecap="round"/>
    <path d="M32,56 Q38,40 50,24" fill="none" stroke="#7F77DD" stroke-width="1.7" stroke-linecap="round"/>
    <path d="M38,48 Q46,34 58,20" fill="none" stroke="#9B8FE8" stroke-width="1.4" stroke-linecap="round"/>
    <path d="M44,40 Q52,28 60,16" fill="none" stroke="#AFA9EC" stroke-width="1.1" stroke-linecap="round"/>
    <path d="M32,18 Q46,8 60,10" fill="none" stroke="#CCC8F7" stroke-width="0.9" stroke-linecap="round"/>
  </g>

  <!-- BAC -->
  <text x="88" y="38" font-family="'Space Grotesk', sans-serif" font-weight="700" font-size="32" fill="white" letter-spacing="4">BAC</text>

  <!-- BUSINESS ANGELS CLUB — rendered first, line anchored to same textLength -->
  <text id="sub" x="88" y="60" font-family="'DM Sans', sans-serif" font-weight="300" font-size="10" fill="#9B8FE8" letter-spacing="3" textLength="178" lengthAdjust="spacing">BUSINESS ANGELS CLUB</text>

  <!-- Línea roja: x1=88 (inicio BAC), x2=88+178=266 (fin exacto del texto) -->
  <line x1="88" y1="44" x2="266" y2="44" stroke="#CC0000" stroke-width="2"/>

  <!-- EmprendeIAE -->
  <text x="88" y="76" font-family="'Space Grotesk', sans-serif" font-weight="500" font-size="10" fill="white" letter-spacing="1.5">EmprendeIAE</text>

</svg>
